<svg width="97" height="43" viewBox="0 0 97 43" fill="none" xmlns="http://www.w3.org/2000/svg">
<rect width="97" height="43" fill="white" fill-opacity="0.96"/>
<rect width="97" height="43" fill="white" fill-opacity="0.96"/>
<path d="M37.8305 27.9702L36.5453 32H35.3559L37.1981 27.0234H37.9501L37.8305 27.9702ZM38.8969 32L37.6083 27.9702L37.475 27.0234H38.2372L40.0863 32H38.8969ZM38.8422 30.1475V31.0088H36.2479V30.1475H38.8422ZM42.9835 31.1729V26.75H44.0568V32H43.0929L42.9835 31.1729ZM40.6798 30.1953V30.1235C40.6798 29.8433 40.7106 29.5881 40.7721 29.3579C40.8359 29.1255 40.9282 28.9261 41.049 28.7598C41.172 28.5911 41.3235 28.4613 41.5036 28.3701C41.6836 28.279 41.8898 28.2334 42.1222 28.2334C42.3364 28.2334 42.5232 28.2812 42.6828 28.377C42.8423 28.4704 42.9778 28.6025 43.0895 28.7734C43.2034 28.9421 43.2957 29.1414 43.3663 29.3716C43.437 29.5994 43.4905 29.8467 43.527 30.1133V30.2363C43.4928 30.4915 43.4393 30.7297 43.3663 30.9507C43.2957 31.1717 43.2034 31.3665 43.0895 31.5352C42.9778 31.7015 42.8411 31.8325 42.6793 31.9282C42.5198 32.0216 42.3318 32.0684 42.1154 32.0684C41.8829 32.0684 41.6767 32.0216 41.4967 31.9282C41.319 31.8348 41.1697 31.7038 41.049 31.5352C40.9282 31.3665 40.8359 31.1683 40.7721 30.9404C40.7106 30.7126 40.6798 30.4642 40.6798 30.1953ZM41.7462 30.1235V30.1953C41.7462 30.3411 41.7565 30.4767 41.777 30.6021C41.7998 30.7274 41.8362 30.8379 41.8864 30.9336C41.9365 31.0293 42.0026 31.1045 42.0846 31.1592C42.1666 31.2116 42.2669 31.2378 42.3854 31.2378C42.5449 31.2378 42.6759 31.2013 42.7785 31.1284C42.881 31.0532 42.9585 30.9495 43.0109 30.8174C43.0633 30.6852 43.0906 30.5314 43.0929 30.356V29.9971C43.0929 29.8512 43.0781 29.7202 43.0485 29.604C43.0189 29.4878 42.9744 29.3898 42.9152 29.3101C42.8582 29.2303 42.7864 29.1699 42.6998 29.1289C42.6133 29.0856 42.5107 29.064 42.3922 29.064C42.276 29.064 42.1769 29.0913 42.0949 29.146C42.0128 29.1984 41.9456 29.2725 41.8932 29.3682C41.8431 29.4639 41.8055 29.5767 41.7804 29.7065C41.7576 29.8341 41.7462 29.9731 41.7462 30.1235ZM47.4838 28.3018H48.4545V31.8667C48.4545 32.2062 48.377 32.4945 48.2221 32.7314C48.0694 32.9684 47.8563 33.1484 47.5829 33.2715C47.3095 33.3945 46.9893 33.4561 46.6224 33.4561C46.4629 33.4561 46.2966 33.4344 46.1234 33.3911C45.9502 33.3501 45.7873 33.2874 45.6346 33.2031C45.482 33.1211 45.3544 33.0163 45.2518 32.8887L45.7064 32.2598C45.8112 32.3783 45.9366 32.474 46.0824 32.5469C46.2282 32.6221 46.3946 32.6597 46.5814 32.6597C46.7523 32.6597 46.897 32.6289 47.0155 32.5674C47.134 32.5059 47.224 32.4159 47.2855 32.2974C47.3493 32.1789 47.3812 32.0353 47.3812 31.8667V29.1665L47.4838 28.3018ZM45.0126 30.1953V30.1235C45.0126 29.8433 45.0468 29.5881 45.1151 29.3579C45.1835 29.1255 45.2826 28.9261 45.4125 28.7598C45.5446 28.5911 45.703 28.4613 45.8876 28.3701C46.0744 28.279 46.2841 28.2334 46.5165 28.2334C46.7671 28.2334 46.9745 28.2812 47.1386 28.377C47.3026 28.4704 47.4359 28.6025 47.5385 28.7734C47.641 28.9421 47.7219 29.1414 47.7811 29.3716C47.8404 29.5994 47.8882 29.8467 47.9247 30.1133V30.2363C47.8882 30.4915 47.8358 30.7297 47.7675 30.9507C47.6991 31.1717 47.6102 31.3665 47.5009 31.5352C47.3915 31.7015 47.2548 31.8325 47.0907 31.9282C46.9289 32.0216 46.7352 32.0684 46.5096 32.0684C46.2795 32.0684 46.0721 32.0216 45.8876 31.9282C45.703 31.8348 45.5446 31.7038 45.4125 31.5352C45.2826 31.3665 45.1835 31.1683 45.1151 30.9404C45.0468 30.7126 45.0126 30.4642 45.0126 30.1953ZM46.079 30.1235V30.1953C46.079 30.3411 46.0927 30.4767 46.12 30.6021C46.1496 30.7274 46.1929 30.8379 46.2499 30.9336C46.3091 31.0293 46.382 31.1045 46.4686 31.1592C46.5575 31.2116 46.6612 31.2378 46.7797 31.2378C46.9528 31.2378 47.093 31.2013 47.2001 31.1284C47.3095 31.0532 47.3892 30.9495 47.4393 30.8174C47.4917 30.6852 47.5191 30.5314 47.5214 30.356V29.9971C47.5214 29.8512 47.5066 29.7202 47.4769 29.604C47.4473 29.4878 47.4029 29.3898 47.3436 29.3101C47.2867 29.2303 47.2115 29.1699 47.118 29.1289C47.0269 29.0856 46.9164 29.064 46.7865 29.064C46.6703 29.064 46.5678 29.0913 46.4789 29.146C46.39 29.1984 46.316 29.2725 46.2567 29.3682C46.1975 29.4639 46.153 29.5767 46.1234 29.7065C46.0938 29.8341 46.079 29.9731 46.079 30.1235ZM51.5089 31.1182V29.5322C51.5089 29.4206 51.4918 29.3249 51.4576 29.2451C51.4235 29.1654 51.3699 29.1027 51.297 29.0571C51.2241 29.0116 51.1295 28.9888 51.0133 28.9888C50.9153 28.9888 50.8299 29.0059 50.757 29.04C50.6863 29.0742 50.6316 29.1232 50.5929 29.187C50.5564 29.2508 50.5382 29.3294 50.5382 29.4229H49.4718C49.4718 29.2565 49.5094 29.1016 49.5846 28.958C49.6598 28.8145 49.7669 28.688 49.9059 28.5786C50.0472 28.4692 50.2158 28.3849 50.4117 28.3257C50.6077 28.2642 50.8276 28.2334 51.0714 28.2334C51.3608 28.2334 51.6183 28.2824 51.8439 28.3804C52.0717 28.4761 52.2517 28.6208 52.3839 28.8145C52.5161 29.0059 52.5821 29.2474 52.5821 29.5391V31.0874C52.5821 31.3107 52.5947 31.4862 52.6197 31.6138C52.6471 31.7391 52.6858 31.8485 52.736 31.9419V32H51.6593C51.6092 31.8929 51.5716 31.7607 51.5465 31.6035C51.5214 31.444 51.5089 31.2822 51.5089 31.1182ZM51.6422 29.7441L51.649 30.332H51.1193C51.0008 30.332 50.8982 30.3468 50.8116 30.3765C50.7273 30.4061 50.659 30.4471 50.6066 30.4995C50.5542 30.5496 50.5154 30.6089 50.4904 30.6772C50.4676 30.7433 50.4562 30.8162 50.4562 30.896C50.4562 30.9712 50.4744 31.0396 50.5109 31.1011C50.5473 31.1603 50.5974 31.207 50.6613 31.2412C50.7251 31.2754 50.7991 31.2925 50.8834 31.2925C51.0224 31.2925 51.1409 31.2651 51.2389 31.2104C51.3391 31.1558 51.4166 31.0897 51.4713 31.0122C51.526 30.9325 51.5533 30.8584 51.5533 30.79L51.8097 31.2344C51.7687 31.3255 51.7185 31.4201 51.6593 31.5181C51.6001 31.6138 51.5249 31.7038 51.4337 31.7881C51.3426 31.8701 51.2321 31.9373 51.1022 31.9897C50.9746 32.0422 50.8208 32.0684 50.6407 32.0684C50.4083 32.0684 50.1975 32.0216 50.0084 31.9282C49.8193 31.8325 49.6678 31.7015 49.5538 31.5352C49.4422 31.3688 49.3863 31.1774 49.3863 30.9609C49.3863 30.7673 49.4217 30.5952 49.4923 30.4448C49.5629 30.2944 49.6689 30.1668 49.8102 30.062C49.9537 29.9572 50.1337 29.8786 50.3502 29.8262C50.5667 29.7715 50.8196 29.7441 51.109 29.7441H51.6422ZM54.7137 29.0913V32H53.6439V28.3018H54.6488L54.7137 29.0913ZM54.5736 30.021L54.307 30.0278C54.307 29.7498 54.3412 29.5003 54.4095 29.2793C54.4779 29.0583 54.5747 28.8703 54.7001 28.7153C54.8277 28.5581 54.9792 28.4385 55.1546 28.3564C55.3324 28.2744 55.5283 28.2334 55.7425 28.2334C55.9157 28.2334 56.0741 28.2585 56.2176 28.3086C56.3612 28.3587 56.4842 28.4396 56.5868 28.5513C56.6916 28.6606 56.7713 28.8065 56.826 28.9888C56.8807 29.1688 56.9081 29.391 56.9081 29.6553V32H55.8348V29.6519C55.8348 29.4969 55.8132 29.3773 55.7699 29.293C55.7266 29.2087 55.6628 29.1494 55.5785 29.1152C55.4964 29.0811 55.3962 29.064 55.2777 29.064C55.1524 29.064 55.0453 29.089 54.9564 29.1392C54.8675 29.187 54.7946 29.2542 54.7377 29.3408C54.6807 29.4274 54.6385 29.5288 54.6112 29.645C54.5861 29.7612 54.5736 29.8866 54.5736 30.021ZM60.3214 28.3018H61.2921V31.8667C61.2921 32.2062 61.2146 32.4945 61.0597 32.7314C60.907 32.9684 60.6939 33.1484 60.4205 33.2715C60.1471 33.3945 59.8269 33.4561 59.4601 33.4561C59.3006 33.4561 59.1342 33.4344 58.961 33.3911C58.7879 33.3501 58.6249 33.2874 58.4723 33.2031C58.3196 33.1211 58.192 33.0163 58.0895 32.8887L58.544 32.2598C58.6489 32.3783 58.7742 32.474 58.92 32.5469C59.0659 32.6221 59.2322 32.6597 59.419 32.6597C59.5899 32.6597 59.7346 32.6289 59.8531 32.5674C59.9716 32.5059 60.0616 32.4159 60.1231 32.2974C60.1869 32.1789 60.2188 32.0353 60.2188 31.8667V29.1665L60.3214 28.3018ZM57.8502 30.1953V30.1235C57.8502 29.8433 57.8844 29.5881 57.9527 29.3579C58.0211 29.1255 58.1202 28.9261 58.2501 28.7598C58.3823 28.5911 58.5406 28.4613 58.7252 28.3701C58.912 28.279 59.1217 28.2334 59.3541 28.2334C59.6048 28.2334 59.8121 28.2812 59.9762 28.377C60.1402 28.4704 60.2735 28.6025 60.3761 28.7734C60.4786 28.9421 60.5595 29.1414 60.6187 29.3716C60.678 29.5994 60.7258 29.8467 60.7623 30.1133V30.2363C60.7258 30.4915 60.6734 30.7297 60.6051 30.9507C60.5367 31.1717 60.4479 31.3665 60.3385 31.5352C60.2291 31.7015 60.0924 31.8325 59.9283 31.9282C59.7665 32.0216 59.5729 32.0684 59.3473 32.0684C59.1171 32.0684 58.9098 32.0216 58.7252 31.9282C58.5406 31.8348 58.3823 31.7038 58.2501 31.5352C58.1202 31.3665 58.0211 31.1683 57.9527 30.9404C57.8844 30.7126 57.8502 30.4642 57.8502 30.1953ZM58.9166 30.1235V30.1953C58.9166 30.3411 58.9303 30.4767 58.9576 30.6021C58.9872 30.7274 59.0305 30.8379 59.0875 30.9336C59.1467 31.0293 59.2197 31.1045 59.3062 31.1592C59.3951 31.2116 59.4988 31.2378 59.6173 31.2378C59.7905 31.2378 59.9306 31.2013 60.0377 31.1284C60.1471 31.0532 60.2268 30.9495 60.277 30.8174C60.3294 30.6852 60.3567 30.5314 60.359 30.356V29.9971C60.359 29.8512 60.3442 29.7202 60.3146 29.604C60.2849 29.4878 60.2405 29.3898 60.1812 29.3101C60.1243 29.2303 60.0491 29.1699 59.9557 29.1289C59.8645 29.0856 59.754 29.064 59.6241 29.064C59.5079 29.064 59.4054 29.0913 59.3165 29.146C59.2276 29.1984 59.1536 29.2725 59.0943 29.3682C59.0351 29.4639 58.9907 29.5767 58.961 29.7065C58.9314 29.8341 58.9166 29.9731 58.9166 30.1235Z" fill="black"/>
<path d="M52.1667 12.2728H45.5V10.6566C45.4988 10.1768 45.6444 9.70736 45.9185 9.30785C46.1926 8.90834 46.5828 8.59669 47.0397 8.41238C47.4966 8.22807 47.9996 8.17938 48.4851 8.27249C48.9705 8.3656 49.4165 8.59631 49.7667 8.9354C50.08 9.24576 50.304 9.63021 50.4167 10.0506C50.444 10.1535 50.492 10.2502 50.5579 10.3351C50.6238 10.4201 50.7063 10.4916 50.8007 10.5456C50.8951 10.5997 50.9996 10.6351 51.1081 10.65C51.2167 10.6649 51.3272 10.6589 51.4333 10.6324C51.5395 10.6058 51.6392 10.5593 51.7268 10.4954C51.8144 10.4315 51.8882 10.3515 51.9439 10.2599C51.9996 10.1684 52.0362 10.0671 52.0515 9.96185C52.0669 9.8566 52.0607 9.74945 52.0333 9.64651C51.8435 8.94736 51.4669 8.30909 50.9417 7.79601C50.3585 7.23226 49.6161 6.84873 48.8083 6.69382C48.0005 6.53892 47.1634 6.6196 46.4029 6.92567C45.6423 7.23174 44.9923 7.74949 44.535 8.41352C44.0777 9.07756 43.8335 9.85811 43.8333 10.6566V12.2728C43.1703 12.2728 42.5344 12.5282 42.0656 12.9828C41.5967 13.4375 41.3333 14.0541 41.3333 14.697V20.3536C41.3333 20.9965 41.5967 21.6132 42.0656 22.0678C42.5344 22.5224 43.1703 22.7778 43.8333 22.7778H52.1667C52.8297 22.7778 53.4656 22.5224 53.9344 22.0678C54.4033 21.6132 54.6667 20.9965 54.6667 20.3536V14.697C54.6667 14.0541 54.4033 13.4375 53.9344 12.9828C53.4656 12.5282 52.8297 12.2728 52.1667 12.2728ZM53 20.3536C53 20.5679 52.9122 20.7734 52.7559 20.925C52.5996 21.0765 52.3877 21.1617 52.1667 21.1617H43.8333C43.6123 21.1617 43.4004 21.0765 43.2441 20.925C43.0878 20.7734 43 20.5679 43 20.3536V14.697C43 14.4827 43.0878 14.2772 43.2441 14.1256C43.4004 13.9741 43.6123 13.8889 43.8333 13.8889H52.1667C52.3877 13.8889 52.5996 13.9741 52.7559 14.1256C52.9122 14.2772 53 14.4827 53 14.697V20.3536Z" fill="black"/>
</svg>
