<svg width="377" height="39" viewBox="0 0 377 39" fill="none" xmlns="http://www.w3.org/2000/svg">
<g filter="url(#filter0_d_375_904)">
<g filter="url(#filter1_d_375_904)">
<rect x="4" y="5" width="369" height="26" rx="9" fill="#02328F"/>
</g>
<path d="M175.361 23.12C175.121 23.12 174.926 23.065 174.776 22.955C174.636 22.845 174.551 22.7 174.521 22.52C174.491 22.33 174.526 22.12 174.626 21.89L178.586 13.115C178.716 12.825 178.871 12.62 179.051 12.5C179.241 12.37 179.456 12.305 179.696 12.305C179.926 12.305 180.131 12.37 180.311 12.5C180.501 12.62 180.661 12.825 180.791 13.115L184.766 21.89C184.876 22.12 184.916 22.33 184.886 22.52C184.856 22.71 184.771 22.86 184.631 22.97C184.491 23.07 184.306 23.12 184.076 23.12C183.796 23.12 183.576 23.055 183.416 22.925C183.266 22.785 183.131 22.575 183.011 22.295L182.036 20.03L182.846 20.555H176.516L177.326 20.03L176.366 22.295C176.236 22.585 176.101 22.795 175.961 22.925C175.821 23.055 175.621 23.12 175.361 23.12ZM179.666 14.51L177.566 19.505L177.176 19.025H182.186L181.811 19.505L179.696 14.51H179.666ZM188.743 23.15C187.913 23.15 187.288 22.915 186.868 22.445C186.448 21.965 186.238 21.265 186.238 20.345V13.25C186.238 12.94 186.318 12.705 186.478 12.545C186.638 12.385 186.868 12.305 187.168 12.305C187.468 12.305 187.698 12.385 187.858 12.545C188.028 12.705 188.113 12.94 188.113 13.25V20.255C188.113 20.715 188.208 21.055 188.398 21.275C188.598 21.495 188.878 21.605 189.238 21.605C189.318 21.605 189.393 21.605 189.463 21.605C189.533 21.595 189.603 21.585 189.673 21.575C189.813 21.555 189.908 21.595 189.958 21.695C190.008 21.785 190.033 21.975 190.033 22.265C190.033 22.515 189.983 22.71 189.883 22.85C189.783 22.99 189.618 23.075 189.388 23.105C189.288 23.115 189.183 23.125 189.073 23.135C188.963 23.145 188.853 23.15 188.743 23.15ZM193.533 23.15C192.703 23.15 192.078 22.915 191.658 22.445C191.238 21.965 191.028 21.265 191.028 20.345V13.25C191.028 12.94 191.108 12.705 191.268 12.545C191.428 12.385 191.658 12.305 191.958 12.305C192.258 12.305 192.488 12.385 192.648 12.545C192.818 12.705 192.903 12.94 192.903 13.25V20.255C192.903 20.715 192.998 21.055 193.188 21.275C193.388 21.495 193.668 21.605 194.028 21.605C194.108 21.605 194.183 21.605 194.253 21.605C194.323 21.595 194.393 21.585 194.463 21.575C194.603 21.555 194.698 21.595 194.748 21.695C194.798 21.785 194.823 21.975 194.823 22.265C194.823 22.515 194.773 22.71 194.673 22.85C194.573 22.99 194.408 23.075 194.178 23.105C194.078 23.115 193.973 23.125 193.863 23.135C193.753 23.145 193.643 23.15 193.533 23.15ZM199.36 23.15C198.53 23.15 197.815 22.995 197.215 22.685C196.615 22.375 196.15 21.935 195.82 21.365C195.5 20.795 195.34 20.12 195.34 19.34C195.34 18.58 195.495 17.915 195.805 17.345C196.125 16.775 196.56 16.33 197.11 16.01C197.67 15.68 198.305 15.515 199.015 15.515C199.535 15.515 200 15.6 200.41 15.77C200.83 15.94 201.185 16.185 201.475 16.505C201.775 16.825 202 17.215 202.15 17.675C202.31 18.125 202.39 18.635 202.39 19.205C202.39 19.385 202.325 19.525 202.195 19.625C202.075 19.715 201.9 19.76 201.67 19.76H196.855V18.68H201.07L200.83 18.905C200.83 18.445 200.76 18.06 200.62 17.75C200.49 17.44 200.295 17.205 200.035 17.045C199.785 16.875 199.47 16.79 199.09 16.79C198.67 16.79 198.31 16.89 198.01 17.09C197.72 17.28 197.495 17.555 197.335 17.915C197.185 18.265 197.11 18.685 197.11 19.175V19.28C197.11 20.1 197.3 20.715 197.68 21.125C198.07 21.525 198.64 21.725 199.39 21.725C199.65 21.725 199.94 21.695 200.26 21.635C200.59 21.565 200.9 21.45 201.19 21.29C201.4 21.17 201.585 21.12 201.745 21.14C201.905 21.15 202.03 21.205 202.12 21.305C202.22 21.405 202.28 21.53 202.3 21.68C202.32 21.82 202.29 21.965 202.21 22.115C202.14 22.265 202.015 22.395 201.835 22.505C201.485 22.725 201.08 22.89 200.62 23C200.17 23.1 199.75 23.15 199.36 23.15Z" fill="white"/>
</g>
<defs>
<filter id="filter0_d_375_904" x="0" y="5" width="377" height="34" filterUnits="userSpaceOnUse" color-interpolation-filters="sRGB">
<feFlood flood-opacity="0" result="BackgroundImageFix"/>
<feColorMatrix in="SourceAlpha" type="matrix" values="0 0 0 0 0 0 0 0 0 0 0 0 0 0 0 0 0 0 127 0" result="hardAlpha"/>
<feOffset dy="4"/>
<feGaussianBlur stdDeviation="2"/>
<feComposite in2="hardAlpha" operator="out"/>
<feColorMatrix type="matrix" values="0 0 0 0 0 0 0 0 0 0 0 0 0 0 0 0 0 0 0.25 0"/>
<feBlend mode="normal" in2="BackgroundImageFix" result="effect1_dropShadow_375_904"/>
<feBlend mode="normal" in="SourceGraphic" in2="effect1_dropShadow_375_904" result="shape"/>
</filter>
<filter id="filter1_d_375_904" x="0" y="0" width="377" height="34" filterUnits="userSpaceOnUse" color-interpolation-filters="sRGB">
<feFlood flood-opacity="0" result="BackgroundImageFix"/>
<feColorMatrix in="SourceAlpha" type="matrix" values="0 0 0 0 0 0 0 0 0 0 0 0 0 0 0 0 0 0 127 0" result="hardAlpha"/>
<feOffset dy="-1"/>
<feGaussianBlur stdDeviation="2"/>
<feComposite in2="hardAlpha" operator="out"/>
<feColorMatrix type="matrix" values="0 0 0 0 0 0 0 0 0 0 0 0 0 0 0 0 0 0 0.25 0"/>
<feBlend mode="normal" in2="BackgroundImageFix" result="effect1_dropShadow_375_904"/>
<feBlend mode="normal" in="SourceGraphic" in2="effect1_dropShadow_375_904" result="shape"/>
</filter>
</defs>
</svg>
