<svg width="115" height="53" viewBox="0 0 115 53" fill="none" xmlns="http://www.w3.org/2000/svg">
<g filter="url(#filter0_d_116_251)">
<g filter="url(#filter1_d_116_251)">
<rect x="4" y="5" width="107" height="40" rx="9" fill="#02328F"/>
<rect x="4.5" y="5.5" width="106" height="39" rx="8.5" stroke="#02328F"/>
</g>
<path d="M21.5524 23C20.8724 23 20.5324 22.66 20.5324 21.98V13.445C20.5324 12.765 20.8724 12.425 21.5524 12.425H25.1524C26.2624 12.425 27.1224 12.67 27.7324 13.16C28.3424 13.64 28.6474 14.31 28.6474 15.17C28.6474 15.74 28.5024 16.23 28.2124 16.64C27.9224 17.05 27.5224 17.35 27.0124 17.54C27.6124 17.71 28.0774 18.01 28.4074 18.44C28.7474 18.86 28.9174 19.395 28.9174 20.045C28.9174 20.985 28.5974 21.715 27.9574 22.235C27.3274 22.745 26.4474 23 25.3174 23H21.5524ZM22.3774 16.91H24.8224C26.1324 16.91 26.7874 16.405 26.7874 15.395C26.7874 14.385 26.1324 13.88 24.8224 13.88H22.3774V16.91ZM22.3774 21.545H25.0774C26.3974 21.545 27.0574 21.015 27.0574 19.955C27.0574 18.895 26.3974 18.365 25.0774 18.365H22.3774V21.545ZM34.2946 23.15C33.4646 23.15 32.7496 22.995 32.1496 22.685C31.5496 22.375 31.0846 21.935 30.7546 21.365C30.4346 20.795 30.2746 20.12 30.2746 19.34C30.2746 18.58 30.4296 17.915 30.7396 17.345C31.0596 16.775 31.4946 16.33 32.0446 16.01C32.6046 15.68 33.2396 15.515 33.9496 15.515C34.9896 15.515 35.8096 15.845 36.4096 16.505C37.0196 17.165 37.3246 18.065 37.3246 19.205C37.3246 19.575 37.0846 19.76 36.6046 19.76H32.0746C32.2146 21.07 32.9646 21.725 34.3246 21.725C34.5846 21.725 34.8746 21.695 35.1946 21.635C35.5246 21.565 35.8346 21.45 36.1246 21.29C36.3846 21.14 36.6046 21.095 36.7846 21.155C36.9646 21.205 37.0896 21.31 37.1596 21.47C37.2396 21.63 37.2496 21.81 37.1896 22.01C37.1396 22.2 36.9996 22.365 36.7696 22.505C36.4196 22.725 36.0146 22.89 35.5546 23C35.1046 23.1 34.6846 23.15 34.2946 23.15ZM34.0246 16.79C33.4746 16.79 33.0296 16.96 32.6896 17.3C32.3496 17.64 32.1446 18.1 32.0746 18.68H35.7646C35.7246 18.07 35.5546 17.605 35.2546 17.285C34.9646 16.955 34.5546 16.79 34.0246 16.79ZM42.2295 25.85C41.6895 25.85 41.1645 25.8 40.6545 25.7C40.1545 25.6 39.6995 25.445 39.2895 25.235C39.0495 25.115 38.9045 24.96 38.8545 24.77C38.8145 24.59 38.8345 24.415 38.9145 24.245C38.9945 24.075 39.1145 23.95 39.2745 23.87C39.4445 23.8 39.6245 23.81 39.8145 23.9C40.2545 24.12 40.6695 24.26 41.0595 24.32C41.4595 24.39 41.7995 24.425 42.0795 24.425C43.4195 24.425 44.0895 23.78 44.0895 22.49V21.485C43.8795 21.895 43.5545 22.22 43.1145 22.46C42.6845 22.7 42.2045 22.82 41.6745 22.82C41.0145 22.82 40.4395 22.67 39.9495 22.37C39.4595 22.06 39.0795 21.63 38.8095 21.08C38.5395 20.53 38.4045 19.89 38.4045 19.16C38.4045 18.43 38.5395 17.795 38.8095 17.255C39.0795 16.705 39.4595 16.28 39.9495 15.98C40.4395 15.67 41.0145 15.515 41.6745 15.515C42.2045 15.515 42.6845 15.63 43.1145 15.86C43.5445 16.09 43.8595 16.405 44.0595 16.805V16.49C44.0595 16.18 44.1395 15.945 44.2995 15.785C44.4695 15.625 44.6995 15.545 44.9895 15.545C45.6095 15.545 45.9195 15.86 45.9195 16.49V22.265C45.9195 23.455 45.6045 24.35 44.9745 24.95C44.3445 25.55 43.4295 25.85 42.2295 25.85ZM42.1845 21.395C42.7645 21.395 43.2245 21.195 43.5645 20.795C43.9045 20.395 44.0745 19.85 44.0745 19.16C44.0745 18.47 43.9045 17.93 43.5645 17.54C43.2245 17.14 42.7645 16.94 42.1845 16.94C41.6045 16.94 41.1445 17.14 40.8045 17.54C40.4645 17.93 40.2945 18.47 40.2945 19.16C40.2945 19.85 40.4645 20.395 40.8045 20.795C41.1445 21.195 41.6045 21.395 42.1845 21.395ZM48.8222 23.12C48.1822 23.12 47.8622 22.8 47.8622 22.16V16.49C47.8622 15.86 48.1672 15.545 48.7772 15.545C49.3872 15.545 49.6922 15.86 49.6922 16.49V16.955C50.0522 16.095 50.8222 15.615 52.0022 15.515C52.4322 15.465 52.6722 15.71 52.7222 16.25C52.7722 16.78 52.5122 17.075 51.9422 17.135L51.6122 17.165C50.3822 17.285 49.7672 17.915 49.7672 19.055V22.16C49.7672 22.8 49.4522 23.12 48.8222 23.12ZM56.228 23.15C55.648 23.15 55.138 23.05 54.698 22.85C54.268 22.64 53.933 22.36 53.693 22.01C53.453 21.66 53.333 21.265 53.333 20.825C53.333 20.285 53.473 19.86 53.753 19.55C54.033 19.23 54.488 19 55.118 18.86C55.758 18.72 56.618 18.65 57.698 18.65H58.178V18.335C58.178 17.835 58.063 17.475 57.833 17.255C57.613 17.035 57.253 16.925 56.753 16.925C56.463 16.925 56.148 16.96 55.808 17.03C55.478 17.1 55.128 17.22 54.758 17.39C54.518 17.5 54.318 17.515 54.158 17.435C53.998 17.345 53.888 17.21 53.828 17.03C53.778 16.84 53.788 16.65 53.858 16.46C53.938 16.27 54.093 16.13 54.323 16.04C54.783 15.85 55.223 15.715 55.643 15.635C56.073 15.555 56.463 15.515 56.813 15.515C58.043 15.515 58.878 15.9 59.318 16.67C59.608 16.29 59.978 16.005 60.428 15.815C60.888 15.615 61.353 15.515 61.823 15.515C62.843 15.515 63.653 15.845 64.253 16.505C64.853 17.155 65.153 18.05 65.153 19.19V19.22C65.153 19.56 64.913 19.73 64.433 19.73H59.993C60.123 21.06 60.853 21.725 62.183 21.725C62.443 21.725 62.733 21.695 63.053 21.635C63.383 21.565 63.693 21.45 63.983 21.29C64.243 21.14 64.463 21.095 64.643 21.155C64.823 21.205 64.948 21.31 65.018 21.47C65.098 21.63 65.108 21.81 65.048 22.01C64.998 22.2 64.858 22.365 64.628 22.505C64.278 22.725 63.873 22.89 63.413 23C62.963 23.1 62.543 23.15 62.153 23.15C61.413 23.15 60.763 23.015 60.203 22.745C59.643 22.475 59.218 22.065 58.928 21.515C58.708 22.035 58.363 22.44 57.893 22.73C57.433 23.01 56.878 23.15 56.228 23.15ZM61.868 16.79C61.348 16.79 60.923 16.95 60.593 17.27C60.273 17.59 60.078 18.05 60.008 18.65H63.593C63.553 18.05 63.388 17.59 63.098 17.27C62.808 16.95 62.398 16.79 61.868 16.79ZM56.483 21.86C56.983 21.86 57.388 21.69 57.698 21.35C58.018 21 58.178 20.55 58.178 20V19.73H57.668C56.728 19.73 56.073 19.805 55.703 19.955C55.343 20.095 55.163 20.355 55.163 20.735C55.163 21.065 55.278 21.335 55.508 21.545C55.738 21.755 56.063 21.86 56.483 21.86ZM67.5715 23.12C66.9515 23.12 66.6415 22.8 66.6415 22.16V16.49C66.6415 15.86 66.9465 15.545 67.5565 15.545C68.1665 15.545 68.4715 15.86 68.4715 16.49V16.805C68.7215 16.385 69.0565 16.065 69.4765 15.845C69.9065 15.625 70.3865 15.515 70.9165 15.515C72.6465 15.515 73.5115 16.52 73.5115 18.53V22.16C73.5115 22.8 73.2015 23.12 72.5815 23.12C71.9515 23.12 71.6365 22.8 71.6365 22.16V18.62C71.6365 18.05 71.5265 17.635 71.3065 17.375C71.0965 17.115 70.7665 16.985 70.3165 16.985C69.7665 16.985 69.3265 17.16 68.9965 17.51C68.6765 17.85 68.5165 18.305 68.5165 18.875V22.16C68.5165 22.8 68.2015 23.12 67.5715 23.12ZM78.1009 23.15C77.6709 23.15 77.2159 23.105 76.7359 23.015C76.2559 22.925 75.8259 22.77 75.4459 22.55C75.2359 22.43 75.1059 22.285 75.0559 22.115C75.0059 21.935 75.0109 21.77 75.0709 21.62C75.1409 21.46 75.2509 21.345 75.4009 21.275C75.5609 21.205 75.7459 21.22 75.9559 21.32C76.3559 21.51 76.7309 21.645 77.0809 21.725C77.4309 21.795 77.7759 21.83 78.1159 21.83C78.5959 21.83 78.9509 21.75 79.1809 21.59C79.4209 21.42 79.5409 21.2 79.5409 20.93C79.5409 20.51 79.2309 20.24 78.6109 20.12L77.1109 19.835C75.8409 19.595 75.2059 18.935 75.2059 17.855C75.2059 17.375 75.3359 16.96 75.5959 16.61C75.8659 16.26 76.2359 15.99 76.7059 15.8C77.1759 15.61 77.7159 15.515 78.3259 15.515C79.2059 15.515 79.9909 15.71 80.6809 16.1C80.8709 16.2 80.9809 16.34 81.0109 16.52C81.0509 16.69 81.0309 16.855 80.9509 17.015C80.8809 17.165 80.7659 17.275 80.6059 17.345C80.4459 17.405 80.2609 17.385 80.0509 17.285C79.7409 17.125 79.4409 17.01 79.1509 16.94C78.8709 16.87 78.6009 16.835 78.3409 16.835C77.8509 16.835 77.4859 16.92 77.2459 17.09C77.0159 17.26 76.9009 17.485 76.9009 17.765C76.9009 18.205 77.1859 18.475 77.7559 18.575L79.2559 18.86C79.9059 18.98 80.3959 19.2 80.7259 19.52C81.0659 19.84 81.2359 20.27 81.2359 20.81C81.2359 21.54 80.9509 22.115 80.3809 22.535C79.8109 22.945 79.0509 23.15 78.1009 23.15ZM86.3551 23.15C85.5251 23.15 84.8101 22.995 84.2101 22.685C83.6101 22.375 83.1451 21.935 82.8151 21.365C82.4951 20.795 82.3351 20.12 82.3351 19.34C82.3351 18.58 82.4901 17.915 82.8001 17.345C83.1201 16.775 83.5551 16.33 84.1051 16.01C84.6651 15.68 85.3001 15.515 86.0101 15.515C87.0501 15.515 87.8701 15.845 88.4701 16.505C89.0801 17.165 89.3851 18.065 89.3851 19.205C89.3851 19.575 89.1451 19.76 88.6651 19.76H84.1351C84.2751 21.07 85.0251 21.725 86.3851 21.725C86.6451 21.725 86.9351 21.695 87.2551 21.635C87.5851 21.565 87.8951 21.45 88.1851 21.29C88.4451 21.14 88.6651 21.095 88.8451 21.155C89.0251 21.205 89.1501 21.31 89.2201 21.47C89.3001 21.63 89.3101 21.81 89.2501 22.01C89.2001 22.2 89.0601 22.365 88.8301 22.505C88.4801 22.725 88.0751 22.89 87.6151 23C87.1651 23.1 86.7451 23.15 86.3551 23.15ZM86.0851 16.79C85.5351 16.79 85.0901 16.96 84.7501 17.3C84.4101 17.64 84.2051 18.1 84.1351 18.68H87.8251C87.7851 18.07 87.6151 17.605 87.3151 17.285C87.0251 16.955 86.6151 16.79 86.0851 16.79ZM94.2007 23.15C92.2607 23.15 91.2907 22.19 91.2907 20.27V17.075H90.5107C90.0107 17.075 89.7607 16.84 89.7607 16.37C89.7607 15.9 90.0107 15.665 90.5107 15.665H91.2907V14.3C91.2907 13.67 91.6057 13.355 92.2357 13.355C92.8557 13.355 93.1657 13.67 93.1657 14.3V15.665H94.7557C95.2557 15.665 95.5057 15.9 95.5057 16.37C95.5057 16.84 95.2557 17.075 94.7557 17.075H93.1657V20.165C93.1657 20.645 93.2707 21.005 93.4807 21.245C93.6907 21.485 94.0307 21.605 94.5007 21.605C94.6707 21.605 94.8207 21.59 94.9507 21.56C95.0807 21.53 95.1957 21.51 95.2957 21.5C95.4157 21.49 95.5157 21.53 95.5957 21.62C95.6757 21.7 95.7157 21.87 95.7157 22.13C95.7157 22.33 95.6807 22.51 95.6107 22.67C95.5507 22.82 95.4357 22.925 95.2657 22.985C95.1357 23.025 94.9657 23.06 94.7557 23.09C94.5457 23.13 94.3607 23.15 94.2007 23.15ZM31.177 37.12C30.827 37.12 30.577 37 30.427 36.76C30.277 36.52 30.282 36.23 30.442 35.89L34.402 27.115C34.532 26.825 34.687 26.62 34.867 26.5C35.057 26.37 35.272 26.305 35.512 26.305C35.742 26.305 35.947 26.37 36.127 26.5C36.317 26.62 36.477 26.825 36.607 27.115L40.582 35.89C40.742 36.24 40.752 36.535 40.612 36.775C40.472 37.005 40.232 37.12 39.892 37.12C39.612 37.12 39.392 37.055 39.232 36.925C39.082 36.785 38.947 36.575 38.827 36.295L38.077 34.555H32.917L32.182 36.295C32.052 36.585 31.917 36.795 31.777 36.925C31.637 37.055 31.437 37.12 31.177 37.12ZM35.482 28.51L33.577 33.025H37.417L35.512 28.51H35.482ZM44.8009 37.15C44.1609 37.15 43.5959 36.995 43.1059 36.685C42.6259 36.375 42.2509 35.935 41.9809 35.365C41.7109 34.785 41.5759 34.105 41.5759 33.325C41.5759 32.535 41.7109 31.86 41.9809 31.3C42.2509 30.73 42.6259 30.29 43.1059 29.98C43.5959 29.67 44.1609 29.515 44.8009 29.515C45.3209 29.515 45.7909 29.63 46.2109 29.86C46.6309 30.09 46.9459 30.395 47.1559 30.775V27.25C47.1559 26.62 47.4659 26.305 48.0859 26.305C48.7159 26.305 49.0309 26.62 49.0309 27.25V36.16C49.0309 36.8 48.7209 37.12 48.1009 37.12C47.4809 37.12 47.1709 36.8 47.1709 36.16V35.845C46.9609 36.245 46.6459 36.565 46.2259 36.805C45.8059 37.035 45.3309 37.15 44.8009 37.15ZM45.3259 35.725C45.8859 35.725 46.3359 35.525 46.6759 35.125C47.0159 34.715 47.1859 34.115 47.1859 33.325C47.1859 32.525 47.0159 31.93 46.6759 31.54C46.3359 31.14 45.8859 30.94 45.3259 30.94C44.7659 30.94 44.3159 31.14 43.9759 31.54C43.6359 31.93 43.4659 32.525 43.4659 33.325C43.4659 34.115 43.6359 34.715 43.9759 35.125C44.3159 35.525 44.7659 35.725 45.3259 35.725ZM54.395 39.85C53.855 39.85 53.33 39.8 52.82 39.7C52.32 39.6 51.865 39.445 51.455 39.235C51.215 39.115 51.07 38.96 51.02 38.77C50.98 38.59 51 38.415 51.08 38.245C51.16 38.075 51.28 37.95 51.44 37.87C51.61 37.8 51.79 37.81 51.98 37.9C52.42 38.12 52.835 38.26 53.225 38.32C53.625 38.39 53.965 38.425 54.245 38.425C55.585 38.425 56.255 37.78 56.255 36.49V35.485C56.045 35.895 55.72 36.22 55.28 36.46C54.85 36.7 54.37 36.82 53.84 36.82C53.18 36.82 52.605 36.67 52.115 36.37C51.625 36.06 51.245 35.63 50.975 35.08C50.705 34.53 50.57 33.89 50.57 33.16C50.57 32.43 50.705 31.795 50.975 31.255C51.245 30.705 51.625 30.28 52.115 29.98C52.605 29.67 53.18 29.515 53.84 29.515C54.37 29.515 54.85 29.63 55.28 29.86C55.71 30.09 56.025 30.405 56.225 30.805V30.49C56.225 30.18 56.305 29.945 56.465 29.785C56.635 29.625 56.865 29.545 57.155 29.545C57.775 29.545 58.085 29.86 58.085 30.49V36.265C58.085 37.455 57.77 38.35 57.14 38.95C56.51 39.55 55.595 39.85 54.395 39.85ZM54.35 35.395C54.93 35.395 55.39 35.195 55.73 34.795C56.07 34.395 56.24 33.85 56.24 33.16C56.24 32.47 56.07 31.93 55.73 31.54C55.39 31.14 54.93 30.94 54.35 30.94C53.77 30.94 53.31 31.14 52.97 31.54C52.63 31.93 52.46 32.47 52.46 33.16C52.46 33.85 52.63 34.395 52.97 34.795C53.31 35.195 53.77 35.395 54.35 35.395ZM62.4427 37.15C61.9127 37.15 61.4377 37.05 61.0177 36.85C60.6077 36.64 60.2827 36.36 60.0427 36.01C59.8127 35.66 59.6977 35.265 59.6977 34.825C59.6977 34.285 59.8377 33.86 60.1177 33.55C60.3977 33.23 60.8527 33 61.4827 32.86C62.1127 32.72 62.9577 32.65 64.0177 32.65H64.5427V32.335C64.5427 31.835 64.4327 31.475 64.2127 31.255C63.9927 31.035 63.6227 30.925 63.1027 30.925C62.8127 30.925 62.4977 30.96 62.1577 31.03C61.8277 31.1 61.4777 31.22 61.1077 31.39C60.8677 31.5 60.6677 31.515 60.5077 31.435C60.3477 31.345 60.2377 31.21 60.1777 31.03C60.1277 30.84 60.1377 30.65 60.2077 30.46C60.2877 30.27 60.4427 30.13 60.6727 30.04C61.1327 29.85 61.5727 29.715 61.9927 29.635C62.4227 29.555 62.8127 29.515 63.1627 29.515C64.2327 29.515 65.0277 29.765 65.5477 30.265C66.0677 30.755 66.3277 31.52 66.3277 32.56V36.16C66.3277 36.8 66.0377 37.12 65.4577 37.12C64.8677 37.12 64.5727 36.8 64.5727 36.16V35.83C64.4027 36.24 64.1327 36.565 63.7627 36.805C63.3927 37.035 62.9527 37.15 62.4427 37.15ZM62.8327 35.86C63.3227 35.86 63.7277 35.69 64.0477 35.35C64.3777 35.01 64.5427 34.58 64.5427 34.06V33.73H64.0327C63.0927 33.73 62.4377 33.805 62.0677 33.955C61.7077 34.095 61.5277 34.355 61.5277 34.735C61.5277 35.065 61.6427 35.335 61.8727 35.545C62.1027 35.755 62.4227 35.86 62.8327 35.86ZM69.1609 37.12C68.5409 37.12 68.2309 36.8 68.2309 36.16V30.49C68.2309 29.86 68.5359 29.545 69.1459 29.545C69.7559 29.545 70.0609 29.86 70.0609 30.49V30.805C70.3109 30.385 70.6459 30.065 71.0659 29.845C71.4959 29.625 71.9759 29.515 72.5059 29.515C74.2359 29.515 75.1009 30.52 75.1009 32.53V36.16C75.1009 36.8 74.7909 37.12 74.1709 37.12C73.5409 37.12 73.2259 36.8 73.2259 36.16V32.62C73.2259 32.05 73.1159 31.635 72.8959 31.375C72.6859 31.115 72.3559 30.985 71.9059 30.985C71.3559 30.985 70.9159 31.16 70.5859 31.51C70.2659 31.85 70.1059 32.305 70.1059 32.875V36.16C70.1059 36.8 69.7909 37.12 69.1609 37.12ZM80.4253 39.85C79.8853 39.85 79.3603 39.8 78.8503 39.7C78.3503 39.6 77.8953 39.445 77.4853 39.235C77.2453 39.115 77.1003 38.96 77.0503 38.77C77.0103 38.59 77.0303 38.415 77.1103 38.245C77.1903 38.075 77.3103 37.95 77.4703 37.87C77.6403 37.8 77.8203 37.81 78.0103 37.9C78.4503 38.12 78.8653 38.26 79.2553 38.32C79.6553 38.39 79.9953 38.425 80.2753 38.425C81.6153 38.425 82.2853 37.78 82.2853 36.49V35.485C82.0753 35.895 81.7503 36.22 81.3103 36.46C80.8803 36.7 80.4003 36.82 79.8703 36.82C79.2103 36.82 78.6353 36.67 78.1453 36.37C77.6553 36.06 77.2753 35.63 77.0053 35.08C76.7353 34.53 76.6003 33.89 76.6003 33.16C76.6003 32.43 76.7353 31.795 77.0053 31.255C77.2753 30.705 77.6553 30.28 78.1453 29.98C78.6353 29.67 79.2103 29.515 79.8703 29.515C80.4003 29.515 80.8803 29.63 81.3103 29.86C81.7403 30.09 82.0553 30.405 82.2553 30.805V30.49C82.2553 30.18 82.3353 29.945 82.4953 29.785C82.6653 29.625 82.8953 29.545 83.1853 29.545C83.8053 29.545 84.1153 29.86 84.1153 30.49V36.265C84.1153 37.455 83.8003 38.35 83.1703 38.95C82.5403 39.55 81.6253 39.85 80.4253 39.85ZM80.3803 35.395C80.9603 35.395 81.4203 35.195 81.7603 34.795C82.1003 34.395 82.2703 33.85 82.2703 33.16C82.2703 32.47 82.1003 31.93 81.7603 31.54C81.4203 31.14 80.9603 30.94 80.3803 30.94C79.8003 30.94 79.3403 31.14 79.0003 31.54C78.6603 31.93 78.4903 32.47 78.4903 33.16C78.4903 33.85 78.6603 34.395 79.0003 34.795C79.3403 35.195 79.8003 35.395 80.3803 35.395Z" fill="white"/>
</g>
<defs>
<filter id="filter0_d_116_251" x="0" y="5" width="115" height="48" filterUnits="userSpaceOnUse" color-interpolation-filters="sRGB">
<feFlood flood-opacity="0" result="BackgroundImageFix"/>
<feColorMatrix in="SourceAlpha" type="matrix" values="0 0 0 0 0 0 0 0 0 0 0 0 0 0 0 0 0 0 127 0" result="hardAlpha"/>
<feOffset dy="4"/>
<feGaussianBlur stdDeviation="2"/>
<feComposite in2="hardAlpha" operator="out"/>
<feColorMatrix type="matrix" values="0 0 0 0 0 0 0 0 0 0 0 0 0 0 0 0 0 0 0.25 0"/>
<feBlend mode="normal" in2="BackgroundImageFix" result="effect1_dropShadow_116_251"/>
<feBlend mode="normal" in="SourceGraphic" in2="effect1_dropShadow_116_251" result="shape"/>
</filter>
<filter id="filter1_d_116_251" x="0" y="0" width="115" height="48" filterUnits="userSpaceOnUse" color-interpolation-filters="sRGB">
<feFlood flood-opacity="0" result="BackgroundImageFix"/>
<feColorMatrix in="SourceAlpha" type="matrix" values="0 0 0 0 0 0 0 0 0 0 0 0 0 0 0 0 0 0 127 0" result="hardAlpha"/>
<feOffset dy="-1"/>
<feGaussianBlur stdDeviation="2"/>
<feComposite in2="hardAlpha" operator="out"/>
<feColorMatrix type="matrix" values="0 0 0 0 0 0 0 0 0 0 0 0 0 0 0 0 0 0 0.25 0"/>
<feBlend mode="normal" in2="BackgroundImageFix" result="effect1_dropShadow_116_251"/>
<feBlend mode="normal" in="SourceGraphic" in2="effect1_dropShadow_116_251" result="shape"/>
</filter>
</defs>
</svg>
