<svg width="115" height="53" viewBox="0 0 115 53" fill="none" xmlns="http://www.w3.org/2000/svg">
<g filter="url(#filter0_d_116_249)">
<g filter="url(#filter1_d_116_249)">
<rect x="4" y="5" width="107" height="40" rx="9" fill="#02328F"/>
</g>
<path d="M21.539 30.12C20.879 30.12 20.549 29.78 20.549 29.1V20.445C20.549 19.765 20.889 19.425 21.569 19.425H26.804C27.324 19.425 27.584 19.675 27.584 20.175C27.584 20.695 27.324 20.955 26.804 20.955H22.469V23.94H26.489C27.009 23.94 27.269 24.19 27.269 24.69C27.269 25.21 27.009 25.47 26.489 25.47H22.469V29.1C22.469 29.78 22.159 30.12 21.539 30.12ZM29.6054 30.12C28.9654 30.12 28.6454 29.8 28.6454 29.16V23.49C28.6454 22.86 28.9504 22.545 29.5604 22.545C30.1704 22.545 30.4754 22.86 30.4754 23.49V23.955C30.8354 23.095 31.6054 22.615 32.7854 22.515C33.2154 22.465 33.4554 22.71 33.5054 23.25C33.5554 23.78 33.2954 24.075 32.7254 24.135L32.3954 24.165C31.1654 24.285 30.5504 24.915 30.5504 26.055V29.16C30.5504 29.8 30.2354 30.12 29.6054 30.12ZM35.4494 21.165C35.0994 21.165 34.8244 21.08 34.6244 20.91C34.4344 20.73 34.3394 20.485 34.3394 20.175C34.3394 19.855 34.4344 19.61 34.6244 19.44C34.8244 19.27 35.0994 19.185 35.4494 19.185C36.1894 19.185 36.5594 19.515 36.5594 20.175C36.5594 20.835 36.1894 21.165 35.4494 21.165ZM35.4494 30.105C35.1494 30.105 34.9194 30.015 34.7594 29.835C34.5994 29.655 34.5194 29.405 34.5194 29.085V23.58C34.5194 22.9 34.8294 22.56 35.4494 22.56C36.0794 22.56 36.3944 22.9 36.3944 23.58V29.085C36.3944 29.405 36.3144 29.655 36.1544 29.835C35.9944 30.015 35.7594 30.105 35.4494 30.105ZM42.6999 30.12C42.3499 30.12 42.0999 30 41.9499 29.76C41.7999 29.52 41.8049 29.23 41.9649 28.89L45.9249 20.115C46.0549 19.825 46.2099 19.62 46.3899 19.5C46.5799 19.37 46.7949 19.305 47.0349 19.305C47.2649 19.305 47.4699 19.37 47.6499 19.5C47.8399 19.62 47.9999 19.825 48.1299 20.115L52.1049 28.89C52.2649 29.24 52.2749 29.535 52.1349 29.775C51.9949 30.005 51.7549 30.12 51.4149 30.12C51.1349 30.12 50.9149 30.055 50.7549 29.925C50.6049 29.785 50.4699 29.575 50.3499 29.295L49.5999 27.555H44.4399L43.7049 29.295C43.5749 29.585 43.4399 29.795 43.2999 29.925C43.1599 30.055 42.9599 30.12 42.6999 30.12ZM47.0049 21.51L45.0999 26.025H48.9399L47.0349 21.51H47.0049ZM56.3238 30.15C55.6838 30.15 55.1188 29.995 54.6288 29.685C54.1488 29.375 53.7738 28.935 53.5038 28.365C53.2338 27.785 53.0988 27.105 53.0988 26.325C53.0988 25.535 53.2338 24.86 53.5038 24.3C53.7738 23.73 54.1488 23.29 54.6288 22.98C55.1188 22.67 55.6838 22.515 56.3238 22.515C56.8438 22.515 57.3138 22.63 57.7338 22.86C58.1538 23.09 58.4688 23.395 58.6788 23.775V20.25C58.6788 19.62 58.9888 19.305 59.6088 19.305C60.2388 19.305 60.5538 19.62 60.5538 20.25V29.16C60.5538 29.8 60.2438 30.12 59.6238 30.12C59.0038 30.12 58.6938 29.8 58.6938 29.16V28.845C58.4838 29.245 58.1688 29.565 57.7488 29.805C57.3288 30.035 56.8538 30.15 56.3238 30.15ZM56.8488 28.725C57.4088 28.725 57.8588 28.525 58.1988 28.125C58.5388 27.715 58.7088 27.115 58.7088 26.325C58.7088 25.525 58.5388 24.93 58.1988 24.54C57.8588 24.14 57.4088 23.94 56.8488 23.94C56.2888 23.94 55.8388 24.14 55.4988 24.54C55.1588 24.93 54.9888 25.525 54.9888 26.325C54.9888 27.115 55.1588 27.715 55.4988 28.125C55.8388 28.525 56.2888 28.725 56.8488 28.725ZM65.9179 32.85C65.3779 32.85 64.8529 32.8 64.3429 32.7C63.8429 32.6 63.3879 32.445 62.9779 32.235C62.7379 32.115 62.5929 31.96 62.5429 31.77C62.5029 31.59 62.5229 31.415 62.6029 31.245C62.6829 31.075 62.8029 30.95 62.9629 30.87C63.1329 30.8 63.3129 30.81 63.5029 30.9C63.9429 31.12 64.3579 31.26 64.7479 31.32C65.1479 31.39 65.4879 31.425 65.7679 31.425C67.1079 31.425 67.7779 30.78 67.7779 29.49V28.485C67.5679 28.895 67.2429 29.22 66.8029 29.46C66.3729 29.7 65.8929 29.82 65.3629 29.82C64.7029 29.82 64.1279 29.67 63.6379 29.37C63.1479 29.06 62.7679 28.63 62.4979 28.08C62.2279 27.53 62.0929 26.89 62.0929 26.16C62.0929 25.43 62.2279 24.795 62.4979 24.255C62.7679 23.705 63.1479 23.28 63.6379 22.98C64.1279 22.67 64.7029 22.515 65.3629 22.515C65.8929 22.515 66.3729 22.63 66.8029 22.86C67.2329 23.09 67.5479 23.405 67.7479 23.805V23.49C67.7479 23.18 67.8279 22.945 67.9879 22.785C68.1579 22.625 68.3879 22.545 68.6779 22.545C69.2979 22.545 69.6079 22.86 69.6079 23.49V29.265C69.6079 30.455 69.2929 31.35 68.6629 31.95C68.0329 32.55 67.1179 32.85 65.9179 32.85ZM65.8729 28.395C66.4529 28.395 66.9129 28.195 67.2529 27.795C67.5929 27.395 67.7629 26.85 67.7629 26.16C67.7629 25.47 67.5929 24.93 67.2529 24.54C66.9129 24.14 66.4529 23.94 65.8729 23.94C65.2929 23.94 64.8329 24.14 64.4929 24.54C64.1529 24.93 63.9829 25.47 63.9829 26.16C63.9829 26.85 64.1529 27.395 64.4929 27.795C64.8329 28.195 65.2929 28.395 65.8729 28.395ZM73.9657 30.15C73.4357 30.15 72.9607 30.05 72.5407 29.85C72.1307 29.64 71.8057 29.36 71.5657 29.01C71.3357 28.66 71.2207 28.265 71.2207 27.825C71.2207 27.285 71.3607 26.86 71.6407 26.55C71.9207 26.23 72.3757 26 73.0057 25.86C73.6357 25.72 74.4807 25.65 75.5407 25.65H76.0657V25.335C76.0657 24.835 75.9557 24.475 75.7357 24.255C75.5157 24.035 75.1457 23.925 74.6257 23.925C74.3357 23.925 74.0207 23.96 73.6807 24.03C73.3507 24.1 73.0007 24.22 72.6307 24.39C72.3907 24.5 72.1907 24.515 72.0307 24.435C71.8707 24.345 71.7607 24.21 71.7007 24.03C71.6507 23.84 71.6607 23.65 71.7307 23.46C71.8107 23.27 71.9657 23.13 72.1957 23.04C72.6557 22.85 73.0957 22.715 73.5157 22.635C73.9457 22.555 74.3357 22.515 74.6857 22.515C75.7557 22.515 76.5507 22.765 77.0707 23.265C77.5907 23.755 77.8507 24.52 77.8507 25.56V29.16C77.8507 29.8 77.5607 30.12 76.9807 30.12C76.3907 30.12 76.0957 29.8 76.0957 29.16V28.83C75.9257 29.24 75.6557 29.565 75.2857 29.805C74.9157 30.035 74.4757 30.15 73.9657 30.15ZM74.3557 28.86C74.8457 28.86 75.2507 28.69 75.5707 28.35C75.9007 28.01 76.0657 27.58 76.0657 27.06V26.73H75.5557C74.6157 26.73 73.9607 26.805 73.5907 26.955C73.2307 27.095 73.0507 27.355 73.0507 27.735C73.0507 28.065 73.1657 28.335 73.3957 28.545C73.6257 28.755 73.9457 28.86 74.3557 28.86ZM80.6838 30.12C80.0638 30.12 79.7538 29.8 79.7538 29.16V23.49C79.7538 22.86 80.0588 22.545 80.6688 22.545C81.2788 22.545 81.5838 22.86 81.5838 23.49V23.805C81.8338 23.385 82.1688 23.065 82.5888 22.845C83.0188 22.625 83.4988 22.515 84.0288 22.515C85.7588 22.515 86.6238 23.52 86.6238 25.53V29.16C86.6238 29.8 86.3138 30.12 85.6938 30.12C85.0638 30.12 84.7488 29.8 84.7488 29.16V25.62C84.7488 25.05 84.6388 24.635 84.4188 24.375C84.2088 24.115 83.8788 23.985 83.4288 23.985C82.8788 23.985 82.4388 24.16 82.1088 24.51C81.7888 24.85 81.6288 25.305 81.6288 25.875V29.16C81.6288 29.8 81.3138 30.12 80.6838 30.12ZM91.9482 32.85C91.4082 32.85 90.8832 32.8 90.3732 32.7C89.8732 32.6 89.4182 32.445 89.0082 32.235C88.7682 32.115 88.6232 31.96 88.5732 31.77C88.5332 31.59 88.5532 31.415 88.6332 31.245C88.7132 31.075 88.8332 30.95 88.9932 30.87C89.1632 30.8 89.3432 30.81 89.5332 30.9C89.9732 31.12 90.3882 31.26 90.7782 31.32C91.1782 31.39 91.5182 31.425 91.7982 31.425C93.1382 31.425 93.8082 30.78 93.8082 29.49V28.485C93.5982 28.895 93.2732 29.22 92.8332 29.46C92.4032 29.7 91.9232 29.82 91.3932 29.82C90.7332 29.82 90.1582 29.67 89.6682 29.37C89.1782 29.06 88.7982 28.63 88.5282 28.08C88.2582 27.53 88.1232 26.89 88.1232 26.16C88.1232 25.43 88.2582 24.795 88.5282 24.255C88.7982 23.705 89.1782 23.28 89.6682 22.98C90.1582 22.67 90.7332 22.515 91.3932 22.515C91.9232 22.515 92.4032 22.63 92.8332 22.86C93.2632 23.09 93.5782 23.405 93.7782 23.805V23.49C93.7782 23.18 93.8582 22.945 94.0182 22.785C94.1882 22.625 94.4182 22.545 94.7082 22.545C95.3282 22.545 95.6382 22.86 95.6382 23.49V29.265C95.6382 30.455 95.3232 31.35 94.6932 31.95C94.0632 32.55 93.1482 32.85 91.9482 32.85ZM91.9032 28.395C92.4832 28.395 92.9432 28.195 93.2832 27.795C93.6232 27.395 93.7932 26.85 93.7932 26.16C93.7932 25.47 93.6232 24.93 93.2832 24.54C92.9432 24.14 92.4832 23.94 91.9032 23.94C91.3232 23.94 90.8632 24.14 90.5232 24.54C90.1832 24.93 90.0132 25.47 90.0132 26.16C90.0132 26.85 90.1832 27.395 90.5232 27.795C90.8632 28.195 91.3232 28.395 91.9032 28.395Z" fill="white"/>
</g>
<defs>
<filter id="filter0_d_116_249" x="0" y="5" width="115" height="48" filterUnits="userSpaceOnUse" color-interpolation-filters="sRGB">
<feFlood flood-opacity="0" result="BackgroundImageFix"/>
<feColorMatrix in="SourceAlpha" type="matrix" values="0 0 0 0 0 0 0 0 0 0 0 0 0 0 0 0 0 0 127 0" result="hardAlpha"/>
<feOffset dy="4"/>
<feGaussianBlur stdDeviation="2"/>
<feComposite in2="hardAlpha" operator="out"/>
<feColorMatrix type="matrix" values="0 0 0 0 0 0 0 0 0 0 0 0 0 0 0 0 0 0 0.25 0"/>
<feBlend mode="normal" in2="BackgroundImageFix" result="effect1_dropShadow_116_249"/>
<feBlend mode="normal" in="SourceGraphic" in2="effect1_dropShadow_116_249" result="shape"/>
</filter>
<filter id="filter1_d_116_249" x="0" y="0" width="115" height="48" filterUnits="userSpaceOnUse" color-interpolation-filters="sRGB">
<feFlood flood-opacity="0" result="BackgroundImageFix"/>
<feColorMatrix in="SourceAlpha" type="matrix" values="0 0 0 0 0 0 0 0 0 0 0 0 0 0 0 0 0 0 127 0" result="hardAlpha"/>
<feOffset dy="-1"/>
<feGaussianBlur stdDeviation="2"/>
<feComposite in2="hardAlpha" operator="out"/>
<feColorMatrix type="matrix" values="0 0 0 0 0 0 0 0 0 0 0 0 0 0 0 0 0 0 0.25 0"/>
<feBlend mode="normal" in2="BackgroundImageFix" result="effect1_dropShadow_116_249"/>
<feBlend mode="normal" in="SourceGraphic" in2="effect1_dropShadow_116_249" result="shape"/>
</filter>
</defs>
</svg>
