<svg width="115" height="53" viewBox="0 0 115 53" fill="none" xmlns="http://www.w3.org/2000/svg">
<g filter="url(#filter0_d_116_250)">
<g filter="url(#filter1_d_116_250)">
<rect x="4" y="5" width="107" height="40" rx="9" fill="#02328F"/>
</g>
<path d="M10.5134 30.12C9.87344 30.12 9.55344 29.79 9.55344 29.13V20.295C9.55344 19.635 9.87344 19.305 10.5134 19.305C11.1534 19.305 11.4734 19.635 11.4734 20.295V29.13C11.4734 29.79 11.1534 30.12 10.5134 30.12ZM14.5368 30.12C13.9168 30.12 13.6068 29.8 13.6068 29.16V23.49C13.6068 22.86 13.9118 22.545 14.5218 22.545C15.1318 22.545 15.4368 22.86 15.4368 23.49V23.805C15.6868 23.385 16.0218 23.065 16.4418 22.845C16.8718 22.625 17.3518 22.515 17.8818 22.515C19.6118 22.515 20.4768 23.52 20.4768 25.53V29.16C20.4768 29.8 20.1668 30.12 19.5468 30.12C18.9168 30.12 18.6018 29.8 18.6018 29.16V25.62C18.6018 25.05 18.4918 24.635 18.2718 24.375C18.0618 24.115 17.7318 23.985 17.2818 23.985C16.7318 23.985 16.2918 24.16 15.9618 24.51C15.6418 24.85 15.4818 25.305 15.4818 25.875V29.16C15.4818 29.8 15.1668 30.12 14.5368 30.12ZM25.8013 32.85C25.2613 32.85 24.7363 32.8 24.2263 32.7C23.7263 32.6 23.2713 32.445 22.8613 32.235C22.6213 32.115 22.4763 31.96 22.4263 31.77C22.3863 31.59 22.4063 31.415 22.4863 31.245C22.5663 31.075 22.6863 30.95 22.8463 30.87C23.0163 30.8 23.1963 30.81 23.3862 30.9C23.8263 31.12 24.2413 31.26 24.6313 31.32C25.0313 31.39 25.3713 31.425 25.6513 31.425C26.9913 31.425 27.6613 30.78 27.6613 29.49V28.485C27.4513 28.895 27.1263 29.22 26.6863 29.46C26.2563 29.7 25.7763 29.82 25.2463 29.82C24.5863 29.82 24.0113 29.67 23.5213 29.37C23.0313 29.06 22.6513 28.63 22.3813 28.08C22.1113 27.53 21.9763 26.89 21.9763 26.16C21.9763 25.43 22.1113 24.795 22.3813 24.255C22.6513 23.705 23.0313 23.28 23.5213 22.98C24.0113 22.67 24.5863 22.515 25.2463 22.515C25.7763 22.515 26.2563 22.63 26.6863 22.86C27.1163 23.09 27.4313 23.405 27.6313 23.805V23.49C27.6313 23.18 27.7113 22.945 27.8713 22.785C28.0413 22.625 28.2713 22.545 28.5613 22.545C29.1813 22.545 29.4913 22.86 29.4913 23.49V29.265C29.4913 30.455 29.1763 31.35 28.5463 31.95C27.9163 32.55 27.0013 32.85 25.8013 32.85ZM25.7563 28.395C26.3363 28.395 26.7963 28.195 27.1363 27.795C27.4763 27.395 27.6463 26.85 27.6463 26.16C27.6463 25.47 27.4763 24.93 27.1363 24.54C26.7963 24.14 26.3363 23.94 25.7563 23.94C25.1763 23.94 24.7163 24.14 24.3763 24.54C24.0363 24.93 23.8663 25.47 23.8663 26.16C23.8663 26.85 24.0363 27.395 24.3763 27.795C24.7163 28.195 25.1763 28.395 25.7563 28.395ZM35.049 30.15C34.219 30.15 33.504 29.995 32.904 29.685C32.304 29.375 31.839 28.935 31.509 28.365C31.189 27.795 31.029 27.12 31.029 26.34C31.029 25.58 31.184 24.915 31.494 24.345C31.814 23.775 32.249 23.33 32.799 23.01C33.359 22.68 33.994 22.515 34.704 22.515C35.744 22.515 36.564 22.845 37.164 23.505C37.774 24.165 38.079 25.065 38.079 26.205C38.079 26.575 37.839 26.76 37.359 26.76H32.829C32.969 28.07 33.719 28.725 35.079 28.725C35.339 28.725 35.629 28.695 35.949 28.635C36.279 28.565 36.589 28.45 36.879 28.29C37.139 28.14 37.359 28.095 37.539 28.155C37.719 28.205 37.844 28.31 37.914 28.47C37.994 28.63 38.004 28.81 37.944 29.01C37.894 29.2 37.754 29.365 37.524 29.505C37.174 29.725 36.769 29.89 36.309 30C35.859 30.1 35.439 30.15 35.049 30.15ZM34.779 23.79C34.229 23.79 33.784 23.96 33.444 24.3C33.104 24.64 32.899 25.1 32.829 25.68H36.519C36.479 25.07 36.309 24.605 36.009 24.285C35.719 23.955 35.309 23.79 34.779 23.79ZM40.4939 30.12C39.8739 30.12 39.5639 29.8 39.5639 29.16V23.49C39.5639 22.86 39.8689 22.545 40.4789 22.545C41.0889 22.545 41.3939 22.86 41.3939 23.49V23.805C41.6439 23.385 41.9789 23.065 42.3989 22.845C42.8289 22.625 43.3089 22.515 43.8389 22.515C45.5689 22.515 46.4339 23.52 46.4339 25.53V29.16C46.4339 29.8 46.1239 30.12 45.5039 30.12C44.8739 30.12 44.5589 29.8 44.5589 29.16V25.62C44.5589 25.05 44.4489 24.635 44.2289 24.375C44.0189 24.115 43.6889 23.985 43.2389 23.985C42.6889 23.985 42.2489 24.16 41.9189 24.51C41.5989 24.85 41.4389 25.305 41.4389 25.875V29.16C41.4389 29.8 41.1239 30.12 40.4939 30.12ZM52.6955 30.12C52.3455 30.12 52.0955 30 51.9455 29.76C51.7955 29.52 51.8005 29.23 51.9605 28.89L55.9205 20.115C56.0505 19.825 56.2055 19.62 56.3855 19.5C56.5755 19.37 56.7905 19.305 57.0305 19.305C57.2605 19.305 57.4655 19.37 57.6455 19.5C57.8355 19.62 57.9955 19.825 58.1255 20.115L62.1005 28.89C62.2605 29.24 62.2705 29.535 62.1305 29.775C61.9905 30.005 61.7505 30.12 61.4105 30.12C61.1305 30.12 60.9105 30.055 60.7505 29.925C60.6005 29.785 60.4655 29.575 60.3455 29.295L59.5955 27.555H54.4355L53.7005 29.295C53.5705 29.585 53.4355 29.795 53.2955 29.925C53.1555 30.055 52.9555 30.12 52.6955 30.12ZM57.0005 21.51L55.0955 26.025H58.9355L57.0305 21.51H57.0005ZM66.3194 30.15C65.6794 30.15 65.1144 29.995 64.6244 29.685C64.1444 29.375 63.7694 28.935 63.4994 28.365C63.2294 27.785 63.0944 27.105 63.0944 26.325C63.0944 25.535 63.2294 24.86 63.4994 24.3C63.7694 23.73 64.1444 23.29 64.6244 22.98C65.1144 22.67 65.6794 22.515 66.3194 22.515C66.8394 22.515 67.3094 22.63 67.7294 22.86C68.1494 23.09 68.4644 23.395 68.6744 23.775V20.25C68.6744 19.62 68.9844 19.305 69.6044 19.305C70.2344 19.305 70.5494 19.62 70.5494 20.25V29.16C70.5494 29.8 70.2394 30.12 69.6194 30.12C68.9994 30.12 68.6894 29.8 68.6894 29.16V28.845C68.4794 29.245 68.1644 29.565 67.7444 29.805C67.3244 30.035 66.8494 30.15 66.3194 30.15ZM66.8444 28.725C67.4044 28.725 67.8544 28.525 68.1944 28.125C68.5344 27.715 68.7044 27.115 68.7044 26.325C68.7044 25.525 68.5344 24.93 68.1944 24.54C67.8544 24.14 67.4044 23.94 66.8444 23.94C66.2844 23.94 65.8344 24.14 65.4944 24.54C65.1544 24.93 64.9844 25.525 64.9844 26.325C64.9844 27.115 65.1544 27.715 65.4944 28.125C65.8344 28.525 66.2844 28.725 66.8444 28.725ZM75.9136 32.85C75.3736 32.85 74.8486 32.8 74.3386 32.7C73.8386 32.6 73.3836 32.445 72.9736 32.235C72.7336 32.115 72.5886 31.96 72.5386 31.77C72.4986 31.59 72.5186 31.415 72.5986 31.245C72.6786 31.075 72.7986 30.95 72.9586 30.87C73.1286 30.8 73.3086 30.81 73.4986 30.9C73.9386 31.12 74.3536 31.26 74.7436 31.32C75.1436 31.39 75.4836 31.425 75.7636 31.425C77.1036 31.425 77.7736 30.78 77.7736 29.49V28.485C77.5636 28.895 77.2386 29.22 76.7986 29.46C76.3686 29.7 75.8886 29.82 75.3586 29.82C74.6986 29.82 74.1236 29.67 73.6336 29.37C73.1436 29.06 72.7636 28.63 72.4936 28.08C72.2236 27.53 72.0886 26.89 72.0886 26.16C72.0886 25.43 72.2236 24.795 72.4936 24.255C72.7636 23.705 73.1436 23.28 73.6336 22.98C74.1236 22.67 74.6986 22.515 75.3586 22.515C75.8886 22.515 76.3686 22.63 76.7986 22.86C77.2286 23.09 77.5436 23.405 77.7436 23.805V23.49C77.7436 23.18 77.8236 22.945 77.9836 22.785C78.1536 22.625 78.3836 22.545 78.6736 22.545C79.2936 22.545 79.6036 22.86 79.6036 23.49V29.265C79.6036 30.455 79.2886 31.35 78.6586 31.95C78.0286 32.55 77.1136 32.85 75.9136 32.85ZM75.8686 28.395C76.4486 28.395 76.9086 28.195 77.2486 27.795C77.5886 27.395 77.7586 26.85 77.7586 26.16C77.7586 25.47 77.5886 24.93 77.2486 24.54C76.9086 24.14 76.4486 23.94 75.8686 23.94C75.2886 23.94 74.8286 24.14 74.4886 24.54C74.1486 24.93 73.9786 25.47 73.9786 26.16C73.9786 26.85 74.1486 27.395 74.4886 27.795C74.8286 28.195 75.2886 28.395 75.8686 28.395ZM83.9613 30.15C83.4313 30.15 82.9563 30.05 82.5363 29.85C82.1263 29.64 81.8013 29.36 81.5613 29.01C81.3313 28.66 81.2163 28.265 81.2163 27.825C81.2163 27.285 81.3563 26.86 81.6363 26.55C81.9163 26.23 82.3713 26 83.0013 25.86C83.6313 25.72 84.4763 25.65 85.5363 25.65H86.0613V25.335C86.0613 24.835 85.9513 24.475 85.7313 24.255C85.5113 24.035 85.1413 23.925 84.6213 23.925C84.3313 23.925 84.0163 23.96 83.6763 24.03C83.3463 24.1 82.9963 24.22 82.6263 24.39C82.3863 24.5 82.1863 24.515 82.0263 24.435C81.8663 24.345 81.7563 24.21 81.6963 24.03C81.6463 23.84 81.6563 23.65 81.7263 23.46C81.8063 23.27 81.9613 23.13 82.1913 23.04C82.6513 22.85 83.0913 22.715 83.5113 22.635C83.9413 22.555 84.3313 22.515 84.6813 22.515C85.7513 22.515 86.5463 22.765 87.0663 23.265C87.5863 23.755 87.8463 24.52 87.8463 25.56V29.16C87.8463 29.8 87.5563 30.12 86.9763 30.12C86.3863 30.12 86.0913 29.8 86.0913 29.16V28.83C85.9213 29.24 85.6513 29.565 85.2813 29.805C84.9113 30.035 84.4713 30.15 83.9613 30.15ZM84.3513 28.86C84.8413 28.86 85.2463 28.69 85.5663 28.35C85.8963 28.01 86.0613 27.58 86.0613 27.06V26.73H85.5513C84.6113 26.73 83.9563 26.805 83.5863 26.955C83.2263 27.095 83.0463 27.355 83.0463 27.735C83.0463 28.065 83.1613 28.335 83.3913 28.545C83.6213 28.755 83.9413 28.86 84.3513 28.86ZM90.6794 30.12C90.0594 30.12 89.7494 29.8 89.7494 29.16V23.49C89.7494 22.86 90.0544 22.545 90.6644 22.545C91.2744 22.545 91.5794 22.86 91.5794 23.49V23.805C91.8294 23.385 92.1644 23.065 92.5844 22.845C93.0144 22.625 93.4944 22.515 94.0244 22.515C95.7544 22.515 96.6194 23.52 96.6194 25.53V29.16C96.6194 29.8 96.3094 30.12 95.6894 30.12C95.0594 30.12 94.7444 29.8 94.7444 29.16V25.62C94.7444 25.05 94.6344 24.635 94.4144 24.375C94.2044 24.115 93.8744 23.985 93.4244 23.985C92.8744 23.985 92.4344 24.16 92.1044 24.51C91.7844 24.85 91.6244 25.305 91.6244 25.875V29.16C91.6244 29.8 91.3094 30.12 90.6794 30.12ZM101.944 32.85C101.404 32.85 100.879 32.8 100.369 32.7C99.8688 32.6 99.4138 32.445 99.0038 32.235C98.7638 32.115 98.6188 31.96 98.5688 31.77C98.5288 31.59 98.5488 31.415 98.6288 31.245C98.7088 31.075 98.8288 30.95 98.9888 30.87C99.1588 30.8 99.3388 30.81 99.5288 30.9C99.9688 31.12 100.384 31.26 100.774 31.32C101.174 31.39 101.514 31.425 101.794 31.425C103.134 31.425 103.804 30.78 103.804 29.49V28.485C103.594 28.895 103.269 29.22 102.829 29.46C102.399 29.7 101.919 29.82 101.389 29.82C100.729 29.82 100.154 29.67 99.6638 29.37C99.1738 29.06 98.7938 28.63 98.5238 28.08C98.2538 27.53 98.1188 26.89 98.1188 26.16C98.1188 25.43 98.2538 24.795 98.5238 24.255C98.7938 23.705 99.1738 23.28 99.6638 22.98C100.154 22.67 100.729 22.515 101.389 22.515C101.919 22.515 102.399 22.63 102.829 22.86C103.259 23.09 103.574 23.405 103.774 23.805V23.49C103.774 23.18 103.854 22.945 104.014 22.785C104.184 22.625 104.414 22.545 104.704 22.545C105.324 22.545 105.634 22.86 105.634 23.49V29.265C105.634 30.455 105.319 31.35 104.689 31.95C104.059 32.55 103.144 32.85 101.944 32.85ZM101.899 28.395C102.479 28.395 102.939 28.195 103.279 27.795C103.619 27.395 103.789 26.85 103.789 26.16C103.789 25.47 103.619 24.93 103.279 24.54C102.939 24.14 102.479 23.94 101.899 23.94C101.319 23.94 100.859 24.14 100.519 24.54C100.179 24.93 100.009 25.47 100.009 26.16C100.009 26.85 100.179 27.395 100.519 27.795C100.859 28.195 101.319 28.395 101.899 28.395Z" fill="white"/>
</g>
<defs>
<filter id="filter0_d_116_250" x="0" y="5" width="115" height="48" filterUnits="userSpaceOnUse" color-interpolation-filters="sRGB">
<feFlood flood-opacity="0" result="BackgroundImageFix"/>
<feColorMatrix in="SourceAlpha" type="matrix" values="0 0 0 0 0 0 0 0 0 0 0 0 0 0 0 0 0 0 127 0" result="hardAlpha"/>
<feOffset dy="4"/>
<feGaussianBlur stdDeviation="2"/>
<feComposite in2="hardAlpha" operator="out"/>
<feColorMatrix type="matrix" values="0 0 0 0 0 0 0 0 0 0 0 0 0 0 0 0 0 0 0.25 0"/>
<feBlend mode="normal" in2="BackgroundImageFix" result="effect1_dropShadow_116_250"/>
<feBlend mode="normal" in="SourceGraphic" in2="effect1_dropShadow_116_250" result="shape"/>
</filter>
<filter id="filter1_d_116_250" x="0" y="0" width="115" height="48" filterUnits="userSpaceOnUse" color-interpolation-filters="sRGB">
<feFlood flood-opacity="0" result="BackgroundImageFix"/>
<feColorMatrix in="SourceAlpha" type="matrix" values="0 0 0 0 0 0 0 0 0 0 0 0 0 0 0 0 0 0 127 0" result="hardAlpha"/>
<feOffset dy="-1"/>
<feGaussianBlur stdDeviation="2"/>
<feComposite in2="hardAlpha" operator="out"/>
<feColorMatrix type="matrix" values="0 0 0 0 0 0 0 0 0 0 0 0 0 0 0 0 0 0 0.25 0"/>
<feBlend mode="normal" in2="BackgroundImageFix" result="effect1_dropShadow_116_250"/>
<feBlend mode="normal" in="SourceGraphic" in2="effect1_dropShadow_116_250" result="shape"/>
</filter>
</defs>
</svg>
