<svg width="97" height="43" viewBox="0 0 97 43" fill="none" xmlns="http://www.w3.org/2000/svg">
<rect width="97" height="43" fill="white" fill-opacity="0.96"/>
<path d="M52.7676 21.9141C52.3992 21.0414 51.8645 20.2486 51.1934 19.5801C50.5243 18.9096 49.7317 18.375 48.8594 18.0059C48.8516 18.002 48.8438 18 48.836 17.9961C50.0528 17.1172 50.8438 15.6855 50.8438 14.0703C50.8438 11.3945 48.6758 9.22656 46 9.22656C43.3242 9.22656 41.1563 11.3945 41.1563 14.0703C41.1563 15.6855 41.9473 17.1172 43.1641 17.998C43.1563 18.002 43.1484 18.0039 43.1406 18.0078C42.2656 18.377 41.4805 18.9063 40.8066 19.582C40.1362 20.2511 39.6016 21.0437 39.2324 21.916C38.8698 22.77 38.6742 23.6856 38.6563 24.6133C38.6557 24.6341 38.6594 24.6549 38.667 24.6743C38.6746 24.6937 38.6861 24.7114 38.7006 24.7263C38.7152 24.7412 38.7326 24.7531 38.7518 24.7612C38.771 24.7693 38.7917 24.7734 38.8125 24.7734H39.9844C40.0703 24.7734 40.1387 24.7051 40.1406 24.6211C40.1797 23.1133 40.7852 21.7012 41.8555 20.6309C42.9629 19.5234 44.4336 18.9141 46 18.9141C47.5664 18.9141 49.0371 19.5234 50.1445 20.6309C51.2149 21.7012 51.8203 23.1133 51.8594 24.6211C51.8613 24.707 51.9297 24.7734 52.0156 24.7734H53.1875C53.2084 24.7734 53.229 24.7693 53.2482 24.7612C53.2674 24.7531 53.2848 24.7412 53.2994 24.7263C53.314 24.7114 53.3254 24.6937 53.333 24.6743C53.3406 24.6549 53.3443 24.6341 53.3438 24.6133C53.3242 23.6797 53.1309 22.7715 52.7676 21.9141V21.9141ZM46 17.4297C45.1035 17.4297 44.2598 17.0801 43.625 16.4453C42.9902 15.8105 42.6406 14.9668 42.6406 14.0703C42.6406 13.1738 42.9902 12.3301 43.625 11.6953C44.2598 11.0605 45.1035 10.7109 46 10.7109C46.8965 10.7109 47.7402 11.0605 48.375 11.6953C49.0098 12.3301 49.3594 13.1738 49.3594 14.0703C49.3594 14.9668 49.0098 15.8105 48.375 16.4453C47.7402 17.0801 46.8965 17.4297 46 17.4297Z" fill="black"/>
<path d="M37.5244 29.0234V34H36.4102V29.0234H37.5244ZM40.498 29.0234L38.5498 31.5117L37.415 32.7422L37.2134 31.7065L37.9619 30.6333L39.1309 29.0234H40.498ZM39.2061 34L37.832 31.7271L38.6797 31.0674L40.5254 34H39.2061ZM40.9548 32.1885V32.1167C40.9548 31.8455 40.9936 31.596 41.071 31.3682C41.1485 31.138 41.2624 30.9386 41.4128 30.77C41.5632 30.6014 41.7478 30.4704 41.9665 30.377C42.1853 30.2812 42.4359 30.2334 42.7185 30.2334C43.0056 30.2334 43.2585 30.2812 43.4773 30.377C43.6983 30.4704 43.884 30.6014 44.0344 30.77C44.1848 30.9386 44.2987 31.138 44.3762 31.3682C44.4537 31.596 44.4924 31.8455 44.4924 32.1167V32.1885C44.4924 32.4574 44.4537 32.7069 44.3762 32.937C44.2987 33.1649 44.1848 33.3643 44.0344 33.5352C43.884 33.7038 43.6995 33.8348 43.4807 33.9282C43.262 34.0216 43.0102 34.0684 42.7253 34.0684C42.4428 34.0684 42.191 34.0216 41.97 33.9282C41.7489 33.8348 41.5632 33.7038 41.4128 33.5352C41.2624 33.3643 41.1485 33.1649 41.071 32.937C40.9936 32.7069 40.9548 32.4574 40.9548 32.1885ZM42.0246 32.1167V32.1885C42.0246 32.3343 42.036 32.471 42.0588 32.5986C42.0839 32.7262 42.1238 32.8379 42.1785 32.9336C42.2331 33.0293 42.3049 33.1045 42.3938 33.1592C42.4849 33.2116 42.5954 33.2378 42.7253 33.2378C42.8552 33.2378 42.9646 33.2116 43.0535 33.1592C43.1423 33.1045 43.2141 33.0293 43.2688 32.9336C43.3235 32.8379 43.3622 32.7262 43.385 32.5986C43.4101 32.471 43.4226 32.3343 43.4226 32.1885V32.1167C43.4226 31.9731 43.4101 31.8387 43.385 31.7134C43.3622 31.5858 43.3235 31.473 43.2688 31.375C43.2141 31.277 43.1412 31.2007 43.05 31.146C42.9612 31.0913 42.8507 31.064 42.7185 31.064C42.5909 31.064 42.4827 31.0913 42.3938 31.146C42.3049 31.2007 42.2331 31.277 42.1785 31.375C42.1238 31.473 42.0839 31.5858 42.0588 31.7134C42.036 31.8387 42.0246 31.9731 42.0246 32.1167ZM46.4839 31.0913V34H45.414V30.3018H46.4189L46.4839 31.0913ZM46.3437 32.021L46.0771 32.0278C46.0771 31.7498 46.1113 31.5003 46.1797 31.2793C46.248 31.0583 46.3449 30.8703 46.4702 30.7153C46.5978 30.5581 46.7493 30.4385 46.9248 30.3564C47.1025 30.2744 47.2985 30.2334 47.5127 30.2334C47.6859 30.2334 47.8442 30.2585 47.9878 30.3086C48.1313 30.3587 48.2544 30.4396 48.3569 30.5513C48.4617 30.6606 48.5415 30.8065 48.5962 30.9888C48.6509 31.1688 48.6782 31.391 48.6782 31.6553V34H47.605V31.6519C47.605 31.4969 47.5833 31.3773 47.54 31.293C47.4967 31.2087 47.4329 31.1494 47.3486 31.1152C47.2666 31.0811 47.1663 31.064 47.0478 31.064C46.9225 31.064 46.8154 31.089 46.7265 31.1392C46.6377 31.187 46.5648 31.2542 46.5078 31.3408C46.4508 31.4274 46.4087 31.5288 46.3813 31.645C46.3563 31.7612 46.3437 31.8866 46.3437 32.021ZM51.6404 30.3018V31.0503H49.446V30.3018H51.6404ZM49.9485 29.3857H51.0183V32.8413C51.0183 32.9438 51.0308 33.0225 51.0559 33.0771C51.0809 33.1318 51.122 33.1706 51.1789 33.1934C51.2359 33.2139 51.3088 33.2241 51.3977 33.2241C51.4615 33.2241 51.5162 33.2218 51.5617 33.2173C51.6073 33.2127 51.6495 33.207 51.6882 33.2002V33.9727C51.5971 34.0023 51.5002 34.0251 51.3977 34.041C51.2951 34.0592 51.1835 34.0684 51.0627 34.0684C50.8326 34.0684 50.6332 34.0308 50.4646 33.9556C50.2982 33.8804 50.1706 33.7619 50.0818 33.6001C49.9929 33.436 49.9485 33.223 49.9485 32.9609V29.3857ZM52.2885 32.1885V32.1167C52.2885 31.8455 52.3273 31.596 52.4047 31.3682C52.4822 31.138 52.5962 30.9386 52.7465 30.77C52.8969 30.6014 53.0815 30.4704 53.3003 30.377C53.519 30.2812 53.7697 30.2334 54.0522 30.2334C54.3393 30.2334 54.5922 30.2812 54.811 30.377C55.032 30.4704 55.2177 30.6014 55.3681 30.77C55.5185 30.9386 55.6324 31.138 55.7099 31.3682C55.7874 31.596 55.8261 31.8455 55.8261 32.1167V32.1885C55.8261 32.4574 55.7874 32.7069 55.7099 32.937C55.6324 33.1649 55.5185 33.3643 55.3681 33.5352C55.2177 33.7038 55.0332 33.8348 54.8144 33.9282C54.5957 34.0216 54.3439 34.0684 54.059 34.0684C53.7765 34.0684 53.5247 34.0216 53.3037 33.9282C53.0826 33.8348 52.8969 33.7038 52.7465 33.5352C52.5962 33.3643 52.4822 33.1649 52.4047 32.937C52.3273 32.7069 52.2885 32.4574 52.2885 32.1885ZM53.3584 32.1167V32.1885C53.3584 32.3343 53.3698 32.471 53.3925 32.5986C53.4176 32.7262 53.4575 32.8379 53.5122 32.9336C53.5669 33.0293 53.6386 33.1045 53.7275 33.1592C53.8186 33.2116 53.9292 33.2378 54.059 33.2378C54.1889 33.2378 54.2983 33.2116 54.3872 33.1592C54.476 33.1045 54.5478 33.0293 54.6025 32.9336C54.6572 32.8379 54.6959 32.7262 54.7187 32.5986C54.7438 32.471 54.7563 32.3343 54.7563 32.1885V32.1167C54.7563 31.9731 54.7438 31.8387 54.7187 31.7134C54.6959 31.5858 54.6572 31.473 54.6025 31.375C54.5478 31.277 54.4749 31.2007 54.3838 31.146C54.2949 31.0913 54.1844 31.064 54.0522 31.064C53.9246 31.064 53.8164 31.0913 53.7275 31.146C53.6386 31.2007 53.5669 31.277 53.5122 31.375C53.4575 31.473 53.4176 31.5858 53.3925 31.7134C53.3698 31.8387 53.3584 31.9731 53.3584 32.1167Z" fill="black"/>
</svg>
