<svg width="97" height="43" viewBox="0 0 97 43" fill="none" xmlns="http://www.w3.org/2000/svg">
<rect width="97" height="43" fill="white" fill-opacity="0.96"/>
<path d="M28.3951 29.0234V34H27.2842L25.4044 30.7837V34H24.2901V29.0234H25.4044L27.2877 32.2397V29.0234H28.3951ZM29.3953 32.1885V32.1167C29.3953 31.8455 29.4341 31.596 29.5115 31.3682C29.589 31.138 29.7029 30.9386 29.8533 30.77C30.0037 30.6014 30.1883 30.4704 30.407 30.377C30.6258 30.2812 30.8764 30.2334 31.159 30.2334C31.4461 30.2334 31.699 30.2812 31.9178 30.377C32.1388 30.4704 32.3245 30.6014 32.4749 30.77C32.6253 30.9386 32.7392 31.138 32.8167 31.3682C32.8942 31.596 32.9329 31.8455 32.9329 32.1167V32.1885C32.9329 32.4574 32.8942 32.7069 32.8167 32.937C32.7392 33.1649 32.6253 33.3643 32.4749 33.5352C32.3245 33.7038 32.1399 33.8348 31.9212 33.9282C31.7024 34.0216 31.4507 34.0684 31.1658 34.0684C30.8833 34.0684 30.6315 34.0216 30.4104 33.9282C30.1894 33.8348 30.0037 33.7038 29.8533 33.5352C29.7029 33.3643 29.589 33.1649 29.5115 32.937C29.4341 32.7069 29.3953 32.4574 29.3953 32.1885ZM30.4651 32.1167V32.1885C30.4651 32.3343 30.4765 32.471 30.4993 32.5986C30.5244 32.7262 30.5643 32.8379 30.6189 32.9336C30.6736 33.0293 30.7454 33.1045 30.8343 33.1592C30.9254 33.2116 31.0359 33.2378 31.1658 33.2378C31.2957 33.2378 31.4051 33.2116 31.4939 33.1592C31.5828 33.1045 31.6546 33.0293 31.7093 32.9336C31.764 32.8379 31.8027 32.7262 31.8255 32.5986C31.8506 32.471 31.8631 32.3343 31.8631 32.1885V32.1167C31.8631 31.9731 31.8506 31.8387 31.8255 31.7134C31.8027 31.5858 31.764 31.473 31.7093 31.375C31.6546 31.277 31.5817 31.2007 31.4905 31.146C31.4017 31.0913 31.2911 31.064 31.159 31.064C31.0314 31.064 30.9231 31.0913 30.8343 31.146C30.7454 31.2007 30.6736 31.277 30.6189 31.375C30.5643 31.473 30.5244 31.5858 30.4993 31.7134C30.4765 31.8387 30.4651 31.9731 30.4651 32.1167ZM35.7583 30.3018V31.0503H33.564V30.3018H35.7583ZM34.0664 29.3857H35.1363V32.8413C35.1363 32.9438 35.1488 33.0225 35.1739 33.0771C35.1989 33.1318 35.2399 33.1706 35.2969 33.1934C35.3539 33.2139 35.4268 33.2241 35.5157 33.2241C35.5795 33.2241 35.6342 33.2218 35.6797 33.2173C35.7253 33.2127 35.7675 33.207 35.8062 33.2002V33.9727C35.715 34.0023 35.6182 34.0251 35.5157 34.041C35.4131 34.0592 35.3015 34.0684 35.1807 34.0684C34.9506 34.0684 34.7512 34.0308 34.5826 33.9556C34.4162 33.8804 34.2886 33.7619 34.1997 33.6001C34.1109 33.436 34.0664 33.223 34.0664 32.9609V29.3857ZM37.7805 30.3018V34H36.7107V30.3018H37.7805ZM36.6458 29.3447C36.6458 29.1898 36.7005 29.0633 36.8098 28.9653C36.9192 28.8651 37.0628 28.8149 37.2405 28.8149C37.4182 28.8149 37.5618 28.8651 37.6712 28.9653C37.7828 29.0633 37.8387 29.1898 37.8387 29.3447C37.8387 29.4974 37.7828 29.6239 37.6712 29.7241C37.5618 29.8221 37.4182 29.8711 37.2405 29.8711C37.0628 29.8711 36.9192 29.8221 36.8098 29.7241C36.7005 29.6239 36.6458 29.4974 36.6458 29.3447ZM40.2608 34H39.1875V30.1685C39.1875 29.8472 39.2536 29.576 39.3858 29.355C39.5202 29.134 39.7127 28.9665 39.9634 28.8525C40.214 28.7363 40.516 28.6782 40.8692 28.6782C41.072 28.6782 41.2668 28.6965 41.4536 28.7329C41.6428 28.7694 41.8376 28.8172 42.0381 28.8765L41.8877 29.7275C41.7578 29.6888 41.62 29.6535 41.4741 29.6216C41.3283 29.5897 41.1494 29.5737 40.9375 29.5737C40.7188 29.5737 40.5513 29.625 40.4351 29.7275C40.3189 29.8278 40.2608 29.9748 40.2608 30.1685V34ZM40.9888 30.3018V31.0503H38.6441V30.3018H40.9888ZM42.5303 30.3018V34H41.4605V30.3018H42.5303ZM44.7542 28.7466V34H43.6843V28.7466H44.7542ZM47.1023 30.3018L45.4924 32.1611L44.6414 33.0156L44.2141 32.2944L44.9046 31.4023L45.8171 30.3018H47.1023ZM45.9744 34L44.9319 32.3013L45.6975 31.7031L47.198 34H45.9744ZM49.8115 33.1182V31.5322C49.8115 31.4206 49.7944 31.3249 49.7603 31.2451C49.7261 31.1654 49.6725 31.1027 49.5996 31.0571C49.5267 31.0116 49.4321 30.9888 49.3159 30.9888C49.2179 30.9888 49.1325 31.0059 49.0596 31.04C48.9889 31.0742 48.9342 31.1232 48.8955 31.187C48.859 31.2508 48.8408 31.3294 48.8408 31.4229H47.7744C47.7744 31.2565 47.812 31.1016 47.8872 30.958C47.9624 30.8145 48.0695 30.688 48.2085 30.5786C48.3498 30.4692 48.5184 30.3849 48.7144 30.3257C48.9103 30.2642 49.1302 30.2334 49.374 30.2334C49.6634 30.2334 49.9209 30.2824 50.1465 30.3804C50.3743 30.4761 50.5544 30.6208 50.6865 30.8145C50.8187 31.0059 50.8848 31.2474 50.8848 31.5391V33.0874C50.8848 33.3107 50.8973 33.4862 50.9224 33.6138C50.9497 33.7391 50.9884 33.8485 51.0386 33.9419V34H49.9619C49.9118 33.8929 49.8742 33.7607 49.8491 33.6035C49.8241 33.444 49.8115 33.2822 49.8115 33.1182ZM49.9448 31.7441L49.9517 32.332H49.4219C49.3034 32.332 49.2008 32.3468 49.1143 32.3765C49.0299 32.4061 48.9616 32.4471 48.9092 32.4995C48.8568 32.5496 48.818 32.6089 48.793 32.6772C48.7702 32.7433 48.7588 32.8162 48.7588 32.896C48.7588 32.9712 48.777 33.0396 48.8135 33.1011C48.8499 33.1603 48.9001 33.207 48.9639 33.2412C49.0277 33.2754 49.1017 33.2925 49.186 33.2925C49.325 33.2925 49.4435 33.2651 49.5415 33.2104C49.6418 33.1558 49.7192 33.0897 49.7739 33.0122C49.8286 32.9325 49.856 32.8584 49.856 32.79L50.1123 33.2344C50.0713 33.3255 50.0212 33.4201 49.9619 33.5181C49.9027 33.6138 49.8275 33.7038 49.7363 33.7881C49.6452 33.8701 49.5347 33.9373 49.4048 33.9897C49.2772 34.0422 49.1234 34.0684 48.9434 34.0684C48.7109 34.0684 48.5002 34.0216 48.311 33.9282C48.1219 33.8325 47.9704 33.7015 47.8564 33.5352C47.7448 33.3688 47.689 33.1774 47.689 32.9609C47.689 32.7673 47.7243 32.5952 47.7949 32.4448C47.8656 32.2944 47.9715 32.1668 48.1128 32.062C48.2563 31.9572 48.4364 31.8786 48.6528 31.8262C48.8693 31.7715 49.1222 31.7441 49.4116 31.7441H49.9448ZM53.8503 30.3018V31.0503H51.656V30.3018H53.8503ZM52.1584 29.3857H53.2283V32.8413C53.2283 32.9438 53.2408 33.0225 53.2659 33.0771C53.2909 33.1318 53.3319 33.1706 53.3889 33.1934C53.4459 33.2139 53.5188 33.2241 53.6077 33.2241C53.6715 33.2241 53.7261 33.2218 53.7717 33.2173C53.8173 33.2127 53.8594 33.207 53.8982 33.2002V33.9727C53.807 34.0023 53.7102 34.0251 53.6077 34.041C53.5051 34.0592 53.3935 34.0684 53.2727 34.0684C53.0426 34.0684 52.8432 34.0308 52.6746 33.9556C52.5082 33.8804 52.3806 33.7619 52.2917 33.6001C52.2029 33.436 52.1584 33.223 52.1584 32.9609V29.3857ZM55.8725 30.3018V34H54.8027V30.3018H55.8725ZM54.7378 29.3447C54.7378 29.1898 54.7925 29.0633 54.9018 28.9653C55.0112 28.8651 55.1548 28.8149 55.3325 28.8149C55.5102 28.8149 55.6538 28.8651 55.7632 28.9653C55.8748 29.0633 55.9306 29.1898 55.9306 29.3447C55.9306 29.4974 55.8748 29.6239 55.7632 29.7241C55.6538 29.8221 55.5102 29.8711 55.3325 29.8711C55.1548 29.8711 55.0112 29.8221 54.9018 29.7241C54.7925 29.6239 54.7378 29.4974 54.7378 29.3447ZM56.8728 32.1885V32.1167C56.8728 31.8455 56.9115 31.596 56.989 31.3682C57.0665 31.138 57.1804 30.9386 57.3308 30.77C57.4812 30.6014 57.6657 30.4704 57.8845 30.377C58.1032 30.2812 58.3539 30.2334 58.6364 30.2334C58.9236 30.2334 59.1765 30.2812 59.3952 30.377C59.6163 30.4704 59.802 30.6014 59.9524 30.77C60.1028 30.9386 60.2167 31.138 60.2942 31.3682C60.3716 31.596 60.4104 31.8455 60.4104 32.1167V32.1885C60.4104 32.4574 60.3716 32.7069 60.2942 32.937C60.2167 33.1649 60.1028 33.3643 59.9524 33.5352C59.802 33.7038 59.6174 33.8348 59.3987 33.9282C59.1799 34.0216 58.9281 34.0684 58.6433 34.0684C58.3607 34.0684 58.1089 34.0216 57.8879 33.9282C57.6669 33.8348 57.4812 33.7038 57.3308 33.5352C57.1804 33.3643 57.0665 33.1649 56.989 32.937C56.9115 32.7069 56.8728 32.4574 56.8728 32.1885ZM57.9426 32.1167V32.1885C57.9426 32.3343 57.954 32.471 57.9768 32.5986C58.0018 32.7262 58.0417 32.8379 58.0964 32.9336C58.1511 33.0293 58.2229 33.1045 58.3117 33.1592C58.4029 33.2116 58.5134 33.2378 58.6433 33.2378C58.7732 33.2378 58.8825 33.2116 58.9714 33.1592C59.0603 33.1045 59.132 33.0293 59.1867 32.9336C59.2414 32.8379 59.2802 32.7262 59.3029 32.5986C59.328 32.471 59.3405 32.3343 59.3405 32.1885V32.1167C59.3405 31.9731 59.328 31.8387 59.3029 31.7134C59.2802 31.5858 59.2414 31.473 59.1867 31.375C59.132 31.277 59.0591 31.2007 58.968 31.146C58.8791 31.0913 58.7686 31.064 58.6364 31.064C58.5088 31.064 58.4006 31.0913 58.3117 31.146C58.2229 31.2007 58.1511 31.277 58.0964 31.375C58.0417 31.473 58.0018 31.5858 57.9768 31.7134C57.954 31.8387 57.9426 31.9731 57.9426 32.1167ZM62.4018 31.0913V34H61.332V30.3018H62.3369L62.4018 31.0913ZM62.2617 32.021L61.9951 32.0278C61.9951 31.7498 62.0293 31.5003 62.0976 31.2793C62.166 31.0583 62.2628 30.8703 62.3881 30.7153C62.5157 30.5581 62.6673 30.4385 62.8427 30.3564C63.0205 30.2744 63.2164 30.2334 63.4306 30.2334C63.6038 30.2334 63.7622 30.2585 63.9057 30.3086C64.0493 30.3587 64.1723 30.4396 64.2749 30.5513C64.3797 30.6606 64.4594 30.8065 64.5141 30.9888C64.5688 31.1688 64.5962 31.391 64.5962 31.6553V34H63.5229V31.6519C63.5229 31.4969 63.5013 31.3773 63.458 31.293C63.4147 31.2087 63.3509 31.1494 63.2666 31.1152C63.1845 31.0811 63.0843 31.064 62.9658 31.064C62.8405 31.064 62.7334 31.089 62.6445 31.1392C62.5556 31.187 62.4827 31.2542 62.4257 31.3408C62.3688 31.4274 62.3266 31.5288 62.2993 31.645C62.2742 31.7612 62.2617 31.8866 62.2617 32.021ZM67.4216 34.0684C67.1276 34.0684 66.8645 34.0216 66.632 33.9282C66.3996 33.8348 66.2025 33.7061 66.0407 33.542C65.8812 33.3757 65.7593 33.1842 65.675 32.9678C65.5907 32.7513 65.5485 32.52 65.5485 32.2739V32.144C65.5485 31.8683 65.5873 31.6143 65.6647 31.3818C65.7422 31.1494 65.855 30.9478 66.0031 30.7769C66.1535 30.6037 66.3381 30.4704 66.5568 30.377C66.7756 30.2812 67.0251 30.2334 67.3054 30.2334C67.5674 30.2334 67.801 30.2767 68.0061 30.3633C68.2111 30.4476 68.3843 30.5695 68.5256 30.729C68.6669 30.8862 68.774 31.0765 68.8469 31.2998C68.9221 31.5208 68.9597 31.7692 68.9597 32.0449V32.4824H65.9792V31.7954H67.9138V31.7134C67.9138 31.5835 67.8898 31.4696 67.842 31.3716C67.7964 31.2736 67.7281 31.1984 67.6369 31.146C67.548 31.0913 67.4353 31.064 67.2985 31.064C67.1687 31.064 67.0604 31.0913 66.9738 31.146C66.8872 31.2007 66.8177 31.2782 66.7653 31.3784C66.7152 31.4764 66.6787 31.5915 66.656 31.7236C66.6332 31.8535 66.6218 31.9937 66.6218 32.144V32.2739C66.6218 32.4175 66.6411 32.5485 66.6799 32.667C66.7186 32.7855 66.7756 32.8869 66.8508 32.9712C66.926 33.0555 67.0171 33.1216 67.1242 33.1694C67.2313 33.2173 67.3532 33.2412 67.4899 33.2412C67.6586 33.2412 67.8192 33.2093 67.9719 33.1455C68.1245 33.0794 68.2567 32.9769 68.3684 32.8379L68.8674 33.4087C68.7922 33.5181 68.6862 33.624 68.5495 33.7266C68.4151 33.8268 68.2533 33.9089 68.0642 33.9727C67.875 34.0365 67.6608 34.0684 67.4216 34.0684ZM70.934 31.1631V34H69.8676V30.3018H70.8691L70.934 31.1631ZM72.038 30.2744L72.0209 31.269C71.9754 31.2622 71.9161 31.2565 71.8432 31.252C71.7703 31.2451 71.7076 31.2417 71.6552 31.2417C71.5185 31.2417 71.4 31.2588 71.2997 31.293C71.2018 31.3249 71.1197 31.3727 71.0536 31.4365C70.9898 31.5003 70.942 31.5801 70.9101 31.6758C70.8782 31.7692 70.8622 31.8774 70.8622 32.0005L70.6606 31.9014C70.6606 31.6576 70.6845 31.4342 70.7324 31.2314C70.7802 31.0286 70.8497 30.8532 70.9409 30.7051C71.032 30.5547 71.1437 30.4385 71.2758 30.3564C71.408 30.2744 71.5584 30.2334 71.727 30.2334C71.7817 30.2334 71.8375 30.2368 71.8945 30.2437C71.9514 30.2505 71.9993 30.2607 72.038 30.2744Z" fill="black"/>
<path d="M56.2501 21.6278L56.0612 21.4611C55.5253 20.9836 55.0563 20.4361 54.6667 19.8333C54.2413 19.0014 53.9863 18.0929 53.9167 17.1611V14.4166C53.9204 12.9531 53.3895 11.5386 52.4238 10.4388C51.4581 9.33912 50.124 8.6299 48.6723 8.44442V7.72775C48.6723 7.53105 48.5941 7.3424 48.4551 7.20331C48.316 7.06422 48.1273 6.98608 47.9306 6.98608C47.7339 6.98608 47.5453 7.06422 47.4062 7.20331C47.2671 7.3424 47.1889 7.53105 47.1889 7.72775V8.45553C45.7502 8.65438 44.4323 9.36789 43.4792 10.4639C42.5262 11.5599 42.0027 12.9642 42.0056 14.4166V17.1611C41.936 18.0929 41.681 19.0014 41.2556 19.8333C40.8728 20.4346 40.4113 20.9821 39.8834 21.4611L39.6945 21.6278V23.1944H56.2501V21.6278Z" fill="black"/>
<path d="M46.5112 23.7778C46.5599 24.13 46.7344 24.4526 47.0024 24.6861C47.2705 24.9197 47.614 25.0483 47.9695 25.0483C48.325 25.0483 48.6685 24.9197 48.9366 24.6861C49.2046 24.4526 49.3791 24.13 49.4278 23.7778H46.5112Z" fill="black"/>
</svg>
