<svg width="97" height="43" viewBox="0 0 97 43" fill="none" xmlns="http://www.w3.org/2000/svg">
<rect width="97" height="43" fill="white" fill-opacity="0.96"/>
<path d="M53.6667 11.3334H40.3333C39.4142 11.3334 38.6667 12.0809 38.6667 13V23C38.6667 23.9192 39.4142 24.6667 40.3333 24.6667H53.6667C54.5858 24.6667 55.3333 23.9192 55.3333 23V13C55.3333 12.0809 54.5858 11.3334 53.6667 11.3334ZM44.2625 14.6667C45.2217 14.6667 45.9292 15.3742 45.9292 16.3334C45.9292 17.2925 45.2217 18 44.2625 18C43.3033 18 42.5958 17.2925 42.5958 16.3334C42.5958 15.3742 43.3025 14.6667 44.2625 14.6667ZM47.3583 21.3334H41.1667V20.9459C41.1667 19.8017 42.5633 18.625 44.2625 18.625C45.9617 18.625 47.3583 19.8017 47.3583 20.9459V21.3334ZM52.8333 20.5H49.5V18.8334H52.8333V20.5ZM52.8333 17.1667H48.6667V15.5H52.8333V17.1667Z" fill="black"/>
<path d="M31.9907 32.6875C31.9907 32.6032 31.9782 32.528 31.9531 32.4619C31.9281 32.3936 31.8825 32.3309 31.8164 32.2739C31.7503 32.217 31.6569 32.16 31.5361 32.103C31.4154 32.0438 31.257 31.9834 31.061 31.9219C30.8377 31.849 30.6247 31.7669 30.4219 31.6758C30.2214 31.5824 30.0425 31.4741 29.8853 31.3511C29.728 31.228 29.6038 31.0845 29.5127 30.9204C29.4238 30.7563 29.3794 30.5649 29.3794 30.3462C29.3794 30.1343 29.4261 29.9429 29.5195 29.772C29.613 29.6011 29.744 29.4552 29.9126 29.3345C30.0812 29.2114 30.2795 29.118 30.5073 29.0542C30.7352 28.9881 30.9858 28.9551 31.2593 28.9551C31.6239 28.9551 31.944 29.02 32.2197 29.1499C32.4977 29.2775 32.7142 29.4575 32.8691 29.6899C33.0241 29.9201 33.1016 30.1878 33.1016 30.4932H31.9941C31.9941 30.3587 31.9657 30.2402 31.9087 30.1377C31.854 30.0329 31.7697 29.9508 31.6558 29.8916C31.5441 29.8324 31.404 29.8027 31.2354 29.8027C31.0713 29.8027 30.9334 29.8278 30.8218 29.8779C30.7124 29.9258 30.6292 29.9919 30.5723 30.0762C30.5176 30.1605 30.4902 30.2528 30.4902 30.353C30.4902 30.4328 30.5107 30.5057 30.5518 30.5718C30.5951 30.6356 30.6566 30.696 30.7363 30.7529C30.8184 30.8076 30.9186 30.86 31.0371 30.9102C31.1556 30.9603 31.2912 31.0081 31.4438 31.0537C31.7104 31.138 31.9463 31.2314 32.1514 31.334C32.3587 31.4365 32.533 31.5527 32.6743 31.6826C32.8156 31.8125 32.9215 31.9595 32.9922 32.1235C33.0651 32.2876 33.1016 32.4733 33.1016 32.6807C33.1016 32.9017 33.0583 33.0977 32.9717 33.2686C32.8874 33.4395 32.7643 33.5853 32.6025 33.7061C32.443 33.8245 32.2516 33.9146 32.0283 33.9761C31.805 34.0376 31.5555 34.0684 31.2798 34.0684C31.0291 34.0684 30.7819 34.0365 30.5381 33.9727C30.2943 33.9066 30.0732 33.8063 29.875 33.6719C29.679 33.5374 29.5218 33.3665 29.4033 33.1592C29.2871 32.9495 29.229 32.7012 29.229 32.4141H30.3433C30.3433 32.5645 30.3649 32.6921 30.4082 32.7969C30.4515 32.8994 30.513 32.9826 30.5928 33.0464C30.6748 33.1102 30.7739 33.1558 30.8901 33.1831C31.0063 33.2104 31.1362 33.2241 31.2798 33.2241C31.4461 33.2241 31.5806 33.2013 31.6831 33.1558C31.7879 33.1079 31.8654 33.043 31.9155 32.9609C31.9657 32.8789 31.9907 32.7878 31.9907 32.6875ZM35.968 30.3018V31.0503H33.7737V30.3018H35.968ZM34.2761 29.3857H35.3459V32.8413C35.3459 32.9438 35.3585 33.0225 35.3835 33.0771C35.4086 33.1318 35.4496 33.1706 35.5066 33.1934C35.5635 33.2139 35.6365 33.2241 35.7253 33.2241C35.7891 33.2241 35.8438 33.2218 35.8894 33.2173C35.935 33.2127 35.9771 33.207 36.0159 33.2002V33.9727C35.9247 34.0023 35.8279 34.0251 35.7253 34.041C35.6228 34.0592 35.5111 34.0684 35.3904 34.0684C35.1602 34.0684 34.9608 34.0308 34.7922 33.9556C34.6259 33.8804 34.4983 33.7619 34.4094 33.6001C34.3205 33.436 34.2761 33.223 34.2761 32.9609V29.3857ZM39.0361 33.1079V30.3018H40.1094V34H39.1045L39.0361 33.1079ZM39.1489 32.3525L39.4429 32.3457C39.4429 32.5941 39.4132 32.8231 39.354 33.0327C39.297 33.2424 39.2104 33.4246 39.0942 33.5796C38.9803 33.7345 38.8379 33.8553 38.667 33.9419C38.4984 34.0262 38.3012 34.0684 38.0757 34.0684C37.8934 34.0684 37.7259 34.0433 37.5732 33.9932C37.4228 33.9408 37.2929 33.8599 37.1836 33.7505C37.0742 33.6388 36.9899 33.4964 36.9306 33.3232C36.8714 33.1478 36.8418 32.9382 36.8418 32.6943V30.3018H37.9082V32.7012C37.9082 32.7969 37.9196 32.8789 37.9424 32.9473C37.9674 33.0133 38.0005 33.068 38.0415 33.1113C38.0848 33.1546 38.1372 33.1865 38.1987 33.207C38.2625 33.2275 38.332 33.2378 38.4072 33.2378C38.5963 33.2378 38.7444 33.1991 38.8515 33.1216C38.9609 33.0418 39.0373 32.9359 39.0805 32.8037C39.1261 32.6693 39.1489 32.5189 39.1489 32.3525ZM43.3415 33.1729V28.75H44.4148V34H43.4509L43.3415 33.1729ZM41.0378 32.1953V32.1235C41.0378 31.8433 41.0686 31.5881 41.1301 31.3579C41.1939 31.1255 41.2862 30.9261 41.407 30.7598C41.53 30.5911 41.6815 30.4613 41.8615 30.3701C42.0416 30.279 42.2478 30.2334 42.4802 30.2334C42.6944 30.2334 42.8812 30.2812 43.0407 30.377C43.2002 30.4704 43.3358 30.6025 43.4475 30.7734C43.5614 30.9421 43.6537 31.1414 43.7243 31.3716C43.795 31.5994 43.8485 31.8467 43.885 32.1133V32.2363C43.8508 32.4915 43.7973 32.7297 43.7243 32.9507C43.6537 33.1717 43.5614 33.3665 43.4475 33.5352C43.3358 33.7015 43.1991 33.8325 43.0373 33.9282C42.8778 34.0216 42.6898 34.0684 42.4734 34.0684C42.2409 34.0684 42.0347 34.0216 41.8547 33.9282C41.677 33.8348 41.5277 33.7038 41.407 33.5352C41.2862 33.3665 41.1939 33.1683 41.1301 32.9404C41.0686 32.7126 41.0378 32.4642 41.0378 32.1953ZM42.1042 32.1235V32.1953C42.1042 32.3411 42.1145 32.4767 42.135 32.6021C42.1578 32.7274 42.1942 32.8379 42.2444 32.9336C42.2945 33.0293 42.3606 33.1045 42.4426 33.1592C42.5246 33.2116 42.6249 33.2378 42.7434 33.2378C42.9029 33.2378 43.0339 33.2013 43.1364 33.1284C43.239 33.0532 43.3165 32.9495 43.3689 32.8174C43.4213 32.6852 43.4486 32.5314 43.4509 32.356V31.9971C43.4509 31.8512 43.4361 31.7202 43.4065 31.604C43.3768 31.4878 43.3324 31.3898 43.2732 31.3101C43.2162 31.2303 43.1444 31.1699 43.0578 31.1289C42.9712 31.0856 42.8687 31.064 42.7502 31.064C42.634 31.064 42.5349 31.0913 42.4529 31.146C42.3708 31.1984 42.3036 31.2725 42.2512 31.3682C42.2011 31.4639 42.1635 31.5767 42.1384 31.7065C42.1156 31.8341 42.1042 31.9731 42.1042 32.1235ZM46.6352 30.3018V34H45.5654V30.3018H46.6352ZM45.5005 29.3447C45.5005 29.1898 45.5551 29.0633 45.6645 28.9653C45.7739 28.8651 45.9174 28.8149 46.0952 28.8149C46.2729 28.8149 46.4165 28.8651 46.5258 28.9653C46.6375 29.0633 46.6933 29.1898 46.6933 29.3447C46.6933 29.4974 46.6375 29.6239 46.5258 29.7241C46.4165 29.8221 46.2729 29.8711 46.0952 29.8711C45.9174 29.8711 45.7739 29.8221 45.6645 29.7241C45.5551 29.6239 45.5005 29.4974 45.5005 29.3447ZM49.5324 34.0684C49.2385 34.0684 48.9753 34.0216 48.7429 33.9282C48.5104 33.8348 48.3133 33.7061 48.1516 33.542C47.9921 33.3757 47.8701 33.1842 47.7858 32.9678C47.7015 32.7513 47.6594 32.52 47.6594 32.2739V32.144C47.6594 31.8683 47.6981 31.6143 47.7756 31.3818C47.8531 31.1494 47.9659 30.9478 48.114 30.7769C48.2644 30.6037 48.4489 30.4704 48.6677 30.377C48.8864 30.2812 49.1359 30.2334 49.4162 30.2334C49.6783 30.2334 49.9118 30.2767 50.1169 30.3633C50.322 30.4476 50.4951 30.5695 50.6364 30.729C50.7777 30.8862 50.8848 31.0765 50.9577 31.2998C51.0329 31.5208 51.0705 31.7692 51.0705 32.0449V32.4824H48.09V31.7954H50.0246V31.7134C50.0246 31.5835 50.0007 31.4696 49.9528 31.3716C49.9073 31.2736 49.8389 31.1984 49.7478 31.146C49.6589 31.0913 49.5461 31.064 49.4094 31.064C49.2795 31.064 49.1713 31.0913 49.0847 31.146C48.9981 31.2007 48.9286 31.2782 48.8762 31.3784C48.826 31.4764 48.7896 31.5915 48.7668 31.7236C48.744 31.8535 48.7326 31.9937 48.7326 32.144V32.2739C48.7326 32.4175 48.752 32.5485 48.7907 32.667C48.8295 32.7855 48.8864 32.8869 48.9616 32.9712C49.0368 33.0555 49.128 33.1216 49.2351 33.1694C49.3422 33.2173 49.4641 33.2412 49.6008 33.2412C49.7694 33.2412 49.93 33.2093 50.0827 33.1455C50.2354 33.0794 50.3675 32.9769 50.4792 32.8379L50.9782 33.4087C50.903 33.5181 50.7971 33.624 50.6604 33.7266C50.5259 33.8268 50.3641 33.9089 50.175 33.9727C49.9859 34.0365 49.7717 34.0684 49.5324 34.0684ZM53.0483 28.7466V34H51.9785V28.7466H53.0483ZM55.3964 30.3018L53.7866 32.1611L52.9355 33.0156L52.5082 32.2944L53.1987 31.4023L54.1113 30.3018H55.3964ZM54.2685 34L53.226 32.3013L53.9916 31.7031L55.4921 34H54.2685ZM55.9933 32.1885V32.1167C55.9933 31.8455 56.0321 31.596 56.1096 31.3682C56.187 31.138 56.301 30.9386 56.4513 30.77C56.6017 30.6014 56.7863 30.4704 57.0051 30.377C57.2238 30.2812 57.4745 30.2334 57.757 30.2334C58.0441 30.2334 58.2971 30.2812 58.5158 30.377C58.7368 30.4704 58.9225 30.6014 59.0729 30.77C59.2233 30.9386 59.3373 31.138 59.4147 31.3682C59.4922 31.596 59.5309 31.8455 59.5309 32.1167V32.1885C59.5309 32.4574 59.4922 32.7069 59.4147 32.937C59.3373 33.1649 59.2233 33.3643 59.0729 33.5352C58.9225 33.7038 58.738 33.8348 58.5192 33.9282C58.3005 34.0216 58.0487 34.0684 57.7638 34.0684C57.4813 34.0684 57.2295 34.0216 57.0085 33.9282C56.7874 33.8348 56.6017 33.7038 56.4513 33.5352C56.301 33.3643 56.187 33.1649 56.1096 32.937C56.0321 32.7069 55.9933 32.4574 55.9933 32.1885ZM57.0632 32.1167V32.1885C57.0632 32.3343 57.0746 32.471 57.0973 32.5986C57.1224 32.7262 57.1623 32.8379 57.217 32.9336C57.2717 33.0293 57.3434 33.1045 57.4323 33.1592C57.5235 33.2116 57.634 33.2378 57.7638 33.2378C57.8937 33.2378 58.0031 33.2116 58.092 33.1592C58.1808 33.1045 58.2526 33.0293 58.3073 32.9336C58.362 32.8379 58.4007 32.7262 58.4235 32.5986C58.4486 32.471 58.4611 32.3343 58.4611 32.1885V32.1167C58.4611 31.9731 58.4486 31.8387 58.4235 31.7134C58.4007 31.5858 58.362 31.473 58.3073 31.375C58.2526 31.277 58.1797 31.2007 58.0886 31.146C57.9997 31.0913 57.8892 31.064 57.757 31.064C57.6294 31.064 57.5212 31.0913 57.4323 31.146C57.3434 31.2007 57.2717 31.277 57.217 31.375C57.1623 31.473 57.1224 31.5858 57.0973 31.7134C57.0746 31.8387 57.0632 31.9731 57.0632 32.1167ZM61.5463 31.1631V34H60.4799V30.3018H61.4814L61.5463 31.1631ZM62.6503 30.2744L62.6332 31.269C62.5876 31.2622 62.5284 31.2565 62.4555 31.252C62.3826 31.2451 62.3199 31.2417 62.2675 31.2417C62.1308 31.2417 62.0123 31.2588 61.912 31.293C61.814 31.3249 61.732 31.3727 61.6659 31.4365C61.6021 31.5003 61.5543 31.5801 61.5224 31.6758C61.4905 31.7692 61.4745 31.8774 61.4745 32.0005L61.2729 31.9014C61.2729 31.6576 61.2968 31.4342 61.3446 31.2314C61.3925 31.0286 61.462 30.8532 61.5531 30.7051C61.6443 30.5547 61.7559 30.4385 61.8881 30.3564C62.0203 30.2744 62.1707 30.2334 62.3393 30.2334C62.394 30.2334 62.4498 30.2368 62.5068 30.2437C62.5637 30.2505 62.6116 30.2607 62.6503 30.2744ZM65.5236 30.3018V31.0503H63.3293V30.3018H65.5236ZM63.8317 29.3857H64.9015V32.8413C64.9015 32.9438 64.9141 33.0225 64.9391 33.0771C64.9642 33.1318 65.0052 33.1706 65.0622 33.1934C65.1191 33.2139 65.1921 33.2241 65.2809 33.2241C65.3447 33.2241 65.3994 33.2218 65.445 33.2173C65.4906 33.2127 65.5327 33.207 65.5714 33.2002V33.9727C65.4803 34.0023 65.3835 34.0251 65.2809 34.041C65.1784 34.0592 65.0667 34.0684 64.946 34.0684C64.7158 34.0684 64.5164 34.0308 64.3478 33.9556C64.1815 33.8804 64.0539 33.7619 63.965 33.6001C63.8761 33.436 63.8317 33.223 63.8317 32.9609V29.3857Z" fill="black"/>
</svg>
